<svg width="700" height="600"
	xmlns="http://www.w3.org/2000/svg" tabindex="0">

	<rect width="100.0%" height="100.0%" x="" y="" tabindex="0" fill="white" />

	<line x1="15.0%" y1="85.0%" x2="90.0%" y2="85.0%" tabindex="-1" stroke="black" stroke-width="0.4%" />

	<line x1="15.0%" y1="85.0%" x2="15.0%" y2="10.0%" tabindex="-1" stroke="black" stroke-width="0.4%" />

	<text x="50.0%" y="5.0%" font-size="18pt" text-anchor="middle" tabindex="0">Height of Male and Female in the World</text>

	<text x="50.0%" y="95.0%" font-size="18pt" text-anchor="middle" tabindex="0">Sex</text>

	<text x="5.0%" y="50.0%" font-size="18pt" text-anchor="middle" transform="rotate(270, 40,300)" tabindex="0">Height (cm)</text>

	<rect width="0.0%" height="2.1112499999999983%" x="24.0%" y="23.54875%" tabindex="0" />

	<rect width="0.0%" height="2.4337500000000034%" x="33.0%" y="21.114999999999995%" tabindex="0" />

	<rect width="0.0%" height="2.7487500000000047%" x="33.0%" y="25.659999999999997%" tabindex="0" />

	<rect width="18.0%" height="0.0%" x="24.0%" y="21.114999999999995%" tabindex="0" />

	<rect width="18.0%" height="0.0%" x="24.0%" y="23.54875%" tabindex="0" />

	<rect width="18.0%" height="0.0%" x="24.0%" y="25.659999999999997%" tabindex="0" />

	<rect width="18.0%" height="0.0%" x="24.0%" y="28.408749999999998%" tabindex="0" />

	<rect width="0.0%" height="2.1112499999999983%" x="42.0%" y="23.54875%" tabindex="0" />

	<rect width="18.0%" height="0.0%" x="24.0%" y="24.7675%" tabindex="0" />

	<rect width="0.0%" height="2.632499999999993%" x="61.0%" y="18.808750000000003%" tabindex="0" />

	<rect width="0.0%" height="2.726250000000004%" x="70.0%" y="16.082499999999996%" tabindex="0" />

	<rect width="0.0%" height="3.510000000000005%" x="70.0%" y="21.441249999999997%" tabindex="0" />

	<rect width="18.0%" height="0.0%" x="61.0%" y="16.082499999999996%" tabindex="0" />

	<rect width="18.0%" height="0.0%" x="61.0%" y="18.808750000000003%" tabindex="0" />

	<rect width="18.0%" height="0.0%" x="61.0%" y="21.441249999999997%" tabindex="0" />

	<rect width="18.0%" height="0.0%" x="61.0%" y="24.95125%" tabindex="0" />

	<rect width="0.0%" height="2.632499999999993%" x="79.0%" y="18.808750000000003%" tabindex="0" />

	<rect width="18.0%" height="0.0%" x="61.0%" y="19.926249999999996%" tabindex="0" />

</svg>
