<svg width="700" height="600"
	xmlns="http://www.w3.org/2000/svg" tabindex="0">

	<rect width="100.0%" height="100.0%" x="" y="" tabindex="0" fill="white" />

	<line x1="15.0%" y1="85.0%" x2="90.0%" y2="85.0%" tabindex="-1" stroke="black" stroke-width="0.4%" />

	<line x1="15.0%" y1="85.0%" x2="15.0%" y2="10.0%" tabindex="-1" stroke="black" stroke-width="0.4%" />

	<text x="50.0%" y="5.0%" font-size="18pt" text-anchor="middle" tabindex="0">How Much the US and UK Spend During Christmas</text>

	<text x="50.0%" y="95.0%" font-size="18pt" text-anchor="middle" tabindex="0">Year</text>

	<text x="5.0%" y="50.0%" font-size="18pt" text-anchor="middle" transform="rotate(270, 40,300)" tabindex="0">Money Spent (in $)</text>

	<circle cx="25.0%" cy="14.125%" r="0.5%" tabindex="0" fill="black" />

	<line x1="25.0%" y1="14.125%" x2="27.5%" y2="15.549999999999997%" tabindex="0" stroke="rgb(57,123,126)" />

	<circle cx="27.5%" cy="15.549999999999997%" r="0.5%" tabindex="0" fill="black" />

	<line x1="27.5%" y1="15.549999999999997%" x2="30.0%" y2="21.625%" tabindex="0" stroke="rgb(57,123,126)" />

	<circle cx="30.0%" cy="21.625%" r="0.5%" tabindex="0" fill="black" />

	<line x1="30.0%" y1="21.625%" x2="32.5%" y2="28.0%" tabindex="0" stroke="rgb(57,123,126)" />

	<circle cx="32.5%" cy="28.0%" r="0.5%" tabindex="0" fill="black" />

	<line x1="32.5%" y1="28.0%" x2="35.0%" y2="22.6%" tabindex="0" stroke="rgb(57,123,126)" />

	<circle cx="35.0%" cy="22.6%" r="0.5%" tabindex="0" fill="black" />

	<line x1="35.0%" y1="22.6%" x2="37.5%" y2="22.75%" tabindex="0" stroke="rgb(57,123,126)" />

	<circle cx="37.5%" cy="22.75%" r="0.5%" tabindex="0" fill="black" />

	<line x1="37.5%" y1="22.75%" x2="40.0%" y2="21.25%" tabindex="0" stroke="rgb(57,123,126)" />

	<circle cx="40.0%" cy="21.25%" r="0.5%" tabindex="0" fill="black" />

	<line x1="40.0%" y1="21.25%" x2="42.5%" y2="17.424999999999997%" tabindex="0" stroke="rgb(57,123,126)" />

	<circle cx="42.5%" cy="17.424999999999997%" r="0.5%" tabindex="0" fill="black" />

	<line x1="42.5%" y1="17.424999999999997%" x2="45.0%" y2="17.875%" tabindex="0" stroke="rgb(57,123,126)" />

	<circle cx="45.0%" cy="17.875%" r="0.5%" tabindex="0" fill="black" />

	<line x1="45.0%" y1="17.875%" x2="47.5%" y2="17.799999999999997%" tabindex="0" stroke="rgb(57,123,126)" />

	<circle cx="47.5%" cy="17.799999999999997%" r="0.5%" tabindex="0" fill="black" />

	<line x1="47.5%" y1="17.799999999999997%" x2="50.0%" y2="29.35%" tabindex="0" stroke="rgb(57,123,126)" />

	<circle cx="50.0%" cy="29.35%" r="0.5%" tabindex="0" fill="black" />

	<line x1="50.0%" y1="29.35%" x2="52.5%" y2="19.825000000000003%" tabindex="0" stroke="rgb(57,123,126)" />

	<circle cx="52.5%" cy="19.825000000000003%" r="0.5%" tabindex="0" fill="black" />

	<line x1="52.5%" y1="19.825000000000003%" x2="55.0%" y2="20.950000000000003%" tabindex="0" stroke="rgb(57,123,126)" />

	<circle cx="55.0%" cy="20.950000000000003%" r="0.5%" tabindex="0" fill="black" />

	<line x1="55.0%" y1="20.950000000000003%" x2="57.5%" y2="29.125%" tabindex="0" stroke="rgb(57,123,126)" />

	<circle cx="57.5%" cy="29.125%" r="0.5%" tabindex="0" fill="black" />

	<line x1="57.5%" y1="29.125%" x2="60.0%" y2="22.675000000000004%" tabindex="0" stroke="rgb(57,123,126)" />

	<circle cx="60.0%" cy="22.675000000000004%" r="0.5%" tabindex="0" fill="black" />

	<line x1="60.0%" y1="22.675000000000004%" x2="62.5%" y2="24.924999999999997%" tabindex="0" stroke="rgb(57,123,126)" />

	<circle cx="62.5%" cy="24.924999999999997%" r="0.5%" tabindex="0" fill="black" />

	<line x1="62.5%" y1="24.924999999999997%" x2="65.0%" y2="15.774999999999991%" tabindex="0" stroke="rgb(57,123,126)" />

	<circle cx="65.0%" cy="15.774999999999991%" r="0.5%" tabindex="0" fill="black" />

	<line x1="65.0%" y1="15.774999999999991%" x2="67.5%" y2="19.974999999999994%" tabindex="0" stroke="rgb(57,123,126)" />

	<circle cx="67.5%" cy="19.974999999999994%" r="0.5%" tabindex="0" fill="black" />

	<line x1="67.5%" y1="19.974999999999994%" x2="70.0%" y2="10.974999999999994%" tabindex="0" stroke="rgb(57,123,126)" />

	<circle cx="70.0%" cy="10.974999999999994%" r="0.5%" tabindex="0" fill="black" />

	<line x1="70.0%" y1="10.974999999999994%" x2="72.5%" y2="28.450000000000003%" tabindex="0" stroke="rgb(57,123,126)" />

	<circle cx="72.5%" cy="28.450000000000003%" r="0.5%" tabindex="0" fill="black" />

	<line x1="72.5%" y1="28.450000000000003%" x2="75.0%" y2="18.775000000000006%" tabindex="0" stroke="rgb(57,123,126)" />

	<circle cx="75.0%" cy="18.775000000000006%" r="0.5%" tabindex="0" fill="black" />

	<line x1="75.0%" y1="18.775000000000006%" x2="77.5%" y2="12.174999999999997%" tabindex="0" stroke="rgb(57,123,126)" />

	<circle cx="77.5%" cy="12.174999999999997%" r="0.5%" tabindex="0" fill="black" />

	<line x1="77.5%" y1="12.174999999999997%" x2="80.0%" y2="10.825000000000003%" tabindex="0" stroke="rgb(57,123,126)" />

	<circle cx="80.0%" cy="10.825000000000003%" r="0.5%" tabindex="0" fill="black" />

	<circle cx="25.0%" cy="20.724999999999994%" r="0.5%" tabindex="0" fill="black" />

	<line x1="25.0%" y1="20.724999999999994%" x2="27.5%" y2="23.725%" tabindex="0" stroke="rgb(202,202,202)" />

	<circle cx="27.5%" cy="23.725%" r="0.5%" tabindex="0" fill="black" />

	<line x1="27.5%" y1="23.725%" x2="30.0%" y2="25.449999999999996%" tabindex="0" stroke="rgb(202,202,202)" />

	<circle cx="30.0%" cy="25.449999999999996%" r="0.5%" tabindex="0" fill="black" />

	<line x1="30.0%" y1="25.449999999999996%" x2="32.5%" y2="33.25000000000001%" tabindex="0" stroke="rgb(202,202,202)" />

	<circle cx="32.5%" cy="33.25000000000001%" r="0.5%" tabindex="0" fill="black" />

	<line x1="32.5%" y1="33.25000000000001%" x2="35.0%" y2="29.950000000000003%" tabindex="0" stroke="rgb(202,202,202)" />

	<circle cx="35.0%" cy="29.950000000000003%" r="0.5%" tabindex="0" fill="black" />

	<line x1="35.0%" y1="29.950000000000003%" x2="37.5%" y2="30.25%" tabindex="0" stroke="rgb(202,202,202)" />

	<circle cx="37.5%" cy="30.25%" r="0.5%" tabindex="0" fill="black" />

	<line x1="37.5%" y1="30.25%" x2="40.0%" y2="27.775%" tabindex="0" stroke="rgb(202,202,202)" />

	<circle cx="40.0%" cy="27.775%" r="0.5%" tabindex="0" fill="black" />

	<line x1="40.0%" y1="27.775%" x2="42.5%" y2="23.050000000000004%" tabindex="0" stroke="rgb(202,202,202)" />

	<circle cx="42.5%" cy="23.050000000000004%" r="0.5%" tabindex="0" fill="black" />

	<line x1="42.5%" y1="23.050000000000004%" x2="45.0%" y2="20.049999999999997%" tabindex="0" stroke="rgb(202,202,202)" />

	<circle cx="45.0%" cy="20.049999999999997%" r="0.5%" tabindex="0" fill="black" />

	<line x1="45.0%" y1="20.049999999999997%" x2="47.5%" y2="38.8%" tabindex="0" stroke="rgb(202,202,202)" />

	<circle cx="47.5%" cy="38.8%" r="0.5%" tabindex="0" fill="black" />

	<line x1="47.5%" y1="38.8%" x2="50.0%" y2="37.15%" tabindex="0" stroke="rgb(202,202,202)" />

	<circle cx="50.0%" cy="37.15%" r="0.5%" tabindex="0" fill="black" />

	<line x1="50.0%" y1="37.15%" x2="52.5%" y2="31.450000000000003%" tabindex="0" stroke="rgb(202,202,202)" />

	<circle cx="52.5%" cy="31.450000000000003%" r="0.5%" tabindex="0" fill="black" />

	<line x1="52.5%" y1="31.450000000000003%" x2="55.0%" y2="27.699999999999996%" tabindex="0" stroke="rgb(202,202,202)" />

	<circle cx="55.0%" cy="27.699999999999996%" r="0.5%" tabindex="0" fill="black" />

	<line x1="55.0%" y1="27.699999999999996%" x2="57.5%" y2="27.25%" tabindex="0" stroke="rgb(202,202,202)" />

	<circle cx="57.5%" cy="27.25%" r="0.5%" tabindex="0" fill="black" />

	<line x1="57.5%" y1="27.25%" x2="60.0%" y2="32.2%" tabindex="0" stroke="rgb(202,202,202)" />

	<circle cx="60.0%" cy="32.2%" r="0.5%" tabindex="0" fill="black" />

	<line x1="60.0%" y1="32.2%" x2="62.5%" y2="31.0%" tabindex="0" stroke="rgb(202,202,202)" />

	<circle cx="62.5%" cy="31.0%" r="0.5%" tabindex="0" fill="black" />

	<line x1="62.5%" y1="31.0%" x2="65.0%" y2="22.75%" tabindex="0" stroke="rgb(202,202,202)" />

	<circle cx="65.0%" cy="22.75%" r="0.5%" tabindex="0" fill="black" />

	<line x1="65.0%" y1="22.75%" x2="67.5%" y2="28.6%" tabindex="0" stroke="rgb(202,202,202)" />

	<circle cx="67.5%" cy="28.6%" r="0.5%" tabindex="0" fill="black" />

	<line x1="67.5%" y1="28.6%" x2="70.0%" y2="20.349999999999994%" tabindex="0" stroke="rgb(202,202,202)" />

	<circle cx="70.0%" cy="20.349999999999994%" r="0.5%" tabindex="0" fill="black" />

	<line x1="70.0%" y1="20.349999999999994%" x2="72.5%" y2="25.449999999999996%" tabindex="0" stroke="rgb(202,202,202)" />

	<circle cx="72.5%" cy="25.449999999999996%" r="0.5%" tabindex="0" fill="black" />

	<line x1="72.5%" y1="25.449999999999996%" x2="75.0%" y2="21.550000000000004%" tabindex="0" stroke="rgb(202,202,202)" />

	<circle cx="75.0%" cy="21.550000000000004%" r="0.5%" tabindex="0" fill="black" />

	<line x1="75.0%" y1="21.550000000000004%" x2="77.5%" y2="21.1%" tabindex="0" stroke="rgb(202,202,202)" />

	<circle cx="77.5%" cy="21.1%" r="0.5%" tabindex="0" fill="black" />

	<line x1="77.5%" y1="21.1%" x2="80.0%" y2="18.549999999999997%" tabindex="0" stroke="rgb(202,202,202)" />

	<circle cx="80.0%" cy="18.549999999999997%" r="0.5%" tabindex="0" fill="black" />

	<line x1="15.0%" y1="85.0%" x2="15.0%" y2="88.0%" tabindex="-1" stroke="black" stroke-width="0.4%" />

	<text x="15.0%" y="90.0%" font-size="8pt" text-anchor="middle" tabindex="0">1995.0</text>

	<line x1="27.5%" y1="85.0%" x2="27.5%" y2="88.0%" tabindex="-1" stroke="black" stroke-width="0.4%" />

	<text x="27.5%" y="90.0%" font-size="8pt" text-anchor="middle" tabindex="0">2332.5</text>

	<line x1="40.0%" y1="85.0%" x2="40.0%" y2="88.0%" tabindex="-1" stroke="black" stroke-width="0.4%" />

	<text x="40.0%" y="90.0%" font-size="8pt" text-anchor="middle" tabindex="0">2670.0</text>

	<line x1="52.5%" y1="85.0%" x2="52.5%" y2="88.0%" tabindex="-1" stroke="black" stroke-width="0.4%" />

	<text x="52.5%" y="90.0%" font-size="8pt" text-anchor="middle" tabindex="0">3007.5</text>

	<line x1="65.0%" y1="85.0%" x2="65.0%" y2="88.0%" tabindex="-1" stroke="black" stroke-width="0.4%" />

	<text x="65.0%" y="90.0%" font-size="8pt" text-anchor="middle" tabindex="0">3345.0</text>

	<line x1="77.5%" y1="85.0%" x2="77.5%" y2="88.0%" tabindex="-1" stroke="black" stroke-width="0.4%" />

	<text x="77.5%" y="90.0%" font-size="8pt" text-anchor="middle" tabindex="0">3682.5</text>

	<line x1="90.0%" y1="85.0%" x2="90.0%" y2="88.0%" tabindex="-1" stroke="black" stroke-width="0.4%" />

	<text x="90.0%" y="90.0%" font-size="8pt" text-anchor="middle" tabindex="0">4020.0</text>

	<text x="12.0%" y="85.5%" font-size="8pt" text-anchor="end" tabindex="0">0.0</text>

	<line x1="15.0%" y1="85.0%" x2="13.0%" y2="85.0%" tabindex="-1" stroke="black" stroke-width="0.4%" />

	<text x="12.0%" y="78.0%" font-size="8pt" text-anchor="end" tabindex="0">100.0</text>

	<line x1="15.0%" y1="77.5%" x2="13.0%" y2="77.5%" tabindex="-1" stroke="black" stroke-width="0.4%" />

	<text x="12.0%" y="70.5%" font-size="8pt" text-anchor="end" tabindex="0">200.0</text>

	<line x1="15.0%" y1="70.0%" x2="13.0%" y2="70.0%" tabindex="-1" stroke="black" stroke-width="0.4%" />

	<text x="12.0%" y="63.0%" font-size="8pt" text-anchor="end" tabindex="0">300.0</text>

	<line x1="15.0%" y1="62.5%" x2="13.0%" y2="62.5%" tabindex="-1" stroke="black" stroke-width="0.4%" />

	<text x="12.0%" y="55.5%" font-size="8pt" text-anchor="end" tabindex="0">400.0</text>

	<line x1="15.0%" y1="55.0%" x2="13.0%" y2="55.0%" tabindex="-1" stroke="black" stroke-width="0.4%" />

	<text x="12.0%" y="48.0%" font-size="8pt" text-anchor="end" tabindex="0">500.0</text>

	<line x1="15.0%" y1="47.5%" x2="13.0%" y2="47.5%" tabindex="-1" stroke="black" stroke-width="0.4%" />

	<text x="12.0%" y="40.5%" font-size="8pt" text-anchor="end" tabindex="0">600.0</text>

	<line x1="15.0%" y1="40.0%" x2="13.0%" y2="40.0%" tabindex="-1" stroke="black" stroke-width="0.4%" />

	<text x="12.0%" y="33.0%" font-size="8pt" text-anchor="end" tabindex="0">700.0</text>

	<line x1="15.0%" y1="32.5%" x2="13.0%" y2="32.5%" tabindex="-1" stroke="black" stroke-width="0.4%" />

	<text x="12.0%" y="25.5%" font-size="8pt" text-anchor="end" tabindex="0">800.0</text>

	<line x1="15.0%" y1="25.0%" x2="13.0%" y2="25.0%" tabindex="-1" stroke="black" stroke-width="0.4%" />

	<text x="12.0%" y="18.0%" font-size="8pt" text-anchor="end" tabindex="0">900.0</text>

	<line x1="15.0%" y1="17.5%" x2="13.0%" y2="17.5%" tabindex="-1" stroke="black" stroke-width="0.4%" />

	<text x="12.0%" y="10.5%" font-size="8pt" text-anchor="end" tabindex="0">1000.0</text>

	<line x1="15.0%" y1="10.0%" x2="13.0%" y2="10.0%" tabindex="-1" stroke="black" stroke-width="0.4%" />

</svg>
