<svg width="1936" height="1000"
	xmlns="http://www.w3.org/2000/svg" id="svg-442199874" tabindex="-1" role="img">

	<rect width="100.0%" height="100.0%" x="0.0%" y="0.0%" id="svg-442199874-1345900725" tabindex="-1" fill="white" aria-label="Genres of the Most Streamed Songs on Spotify,  with 34 slices. Use the arrow keys to navigate the chart." />

	<rect width="1742.0" height="790.0" x="96.0" y="160.0" id="svg-442199874-839998248" tabindex="-1" fill="white" aria-label="Chart Area 34 slices." />

	<rect width="0.0" height="0.0" x="96.80000000000001" y="936.0" id="svg-442199874-943573036" tabindex="-1" />

	<rect width="1742.4" height="50.0" x="96.80000000000001" y="950.0" id="svg-442199874-1242027525" tabindex="-1" fill="rgba(0.0,0.0,0.0,0.0)" aria-label="x axis" />

	<text x="96.80000000000001" y="1000.0" font-size="14px" font-family="Arial" text-anchor="left" id="svg-442199874-1948810915" tabindex="-1"></text>

	<rect width="0.0" height="0.0" x="96.80000000000001" y="936.0" id="svg-442199874-2104973502" tabindex="-1" />

	<rect width="96.80000000000001" height="790.0" x="0.0" y="146.0" id="svg-442199874-735937428" tabindex="-1" fill="rgba(0.0,0.0,0.0,0.0)" aria-label="y axis" />

	<text x="0.0" y="936.0" font-size="14px" font-family="Arial" text-anchor="left" transform="rotate(0.0, 0.0, 936)" id="svg-442199874-1604247316" tabindex="-1"></text>

	<text x="758.0" y="62.0" font-size="20px" font-family="Arial" text-anchor="left" id="svg-442199874-1752461090" tabindex="-1">Genres of the Most Streamed Songs on Spotify</text>

	<text x="846.0" y="134.0" font-size="15px" font-family="Arial" text-anchor="left" id="svg-442199874-788625466" tabindex="-1">Most Popular Music Genres in Spotify</text>

	<path id="svg-442199874-1423983012" tabindex="-1" fill="rgba(239.0,201.0,31.0,255.0)" aria-label="acoustic pop 1.0" d="M967.0,146.0 A 395.0,395.0 0 0 1 991.8022552140787,146.77944227083276 L 969.4488302616433,502.0769575912974 A 39.0,39.0 0 0 0 967.0,502.0 z" />

	<path id="svg-442199874-746074699" tabindex="-1" fill="rgba(242.0,0.0,22.0,255.0)" aria-label="alternative rock 1.0" d="M991.8022552140787,146.77944227083276 A 395.0,395.0 0 0 1 1016.5066272579,149.11469298078123 L 971.8879961090079,502.30752664873535 A 39.0,39.0 0 0 0 969.4488302616433,502.0769575912974 z" />

	<path id="svg-442199874-127791068" tabindex="-1" fill="rgba(244.0,41.0,122.0,255.0)" aria-label="australian dance 1.0" d="M1016.5066272579,149.11469298078123 A 395.0,395.0 0 0 1 1041.015619261361,152.99653596216797 L 974.3078712688432,502.69079722158114 A 39.0,39.0 0 0 0 971.8879961090079,502.30752664873535 z" />

	<path id="svg-442199874-405896924" tabindex="-1" fill="rgba(37.0,183.0,13.0,255.0)" aria-label="australian pop 1.0" d="M1041.015619261361,152.99653596216797 A 395.0,395.0 0 0 1 1065.2325054301175,158.40965135419066 L 976.6989055994293,503.2252567159834 A 39.0,39.0 0 0 0 974.3078712688432,502.69079722158114 z" />

	<path id="svg-442199874-1309335839" tabindex="-1" fill="rgba(253.0,155.0,23.0,255.0)" aria-label="beatlesque 1.0" d="M1065.2325054301175,158.40965135419066 A 395.0,395.0 0 0 1 1089.061712778104,165.33267606341428 L 979.0516627806229,503.908795864489 A 39.0,39.0 0 0 0 976.6989055994293,503.2252567159834 z" />

	<path id="svg-442199874-596470015" tabindex="-1" fill="rgba(44.0,177.0,239.0,255.0)" aria-label="boy band 1.0" d="M1089.061712778104,165.33267606341428 A 395.0,395.0 0 0 1 1112.4091983104477,173.73828807414066 L 981.3568575547024,504.7387170503582 A 39.0,39.0 0 0 0 979.0516627806229,503.908795864489 z" />

	<path id="svg-442199874-1267105885" tabindex="-1" fill="rgba(253.0,107.0,7.0,255.0)" aria-label="brostep 1.0" d="M1112.4091983104477,173.73828807414066 A 395.0,395.0 0 0 1 1135.1828201682035,183.59331427592218 L 983.6053923710379,505.71174495382525 A 39.0,39.0 0 0 0 981.3568575547024,504.7387170503582 z" />

	<path id="svg-442199874-1481818223" tabindex="-1" fill="rgba(170.0,218.0,68.0,255.0)" aria-label="cali rap 1.0" d="M1135.1828201682035,183.59331427592218 A 395.0,395.0 0 0 1 1157.2927012701773,194.85886138267375 L 985.7883932899668,506.8240394782893 A 39.0,39.0 0 0 0 983.6053923710379,505.71174495382525 z" />

	<path id="svg-442199874-1095352419" tabindex="-1" fill="rgba(74.0,131.0,34.0,255.0)" aria-label="canadian contemporary r&b 4.0" d="M1157.2927012701773,194.85886138267375 A 395.0,395.0 0 0 1 1237.3961068418319,253.05739216854226 L 993.6973371312189,512.5702235305649 A 39.0,39.0 0 0 0 985.7883932899668,506.8240394782893 z" />

	<path id="svg-442199874-164332069" tabindex="-1" fill="rgba(122.0,199.0,237.0,255.0)" aria-label="canadian hip hop 2.0" d="M1237.3961068418319,253.05739216854226 A 395.0,395.0 0 0 1 1271.3527308964367,289.21752404926735 L 997.0500164682558,516.1404643998011 A 39.0,39.0 0 0 0 993.6973371312189,512.5702235305649 z" />

	<path id="svg-442199874-1991278377" tabindex="-1" fill="rgba(23.0,179.0,170.0,255.0)" aria-label="canadian pop 6.0" d="M1271.3527308964367,289.21752404926735 A 395.0,395.0 0 0 1 1342.6673239365855,418.9382872218955 L 1004.091204135511,528.948337219377 A 39.0,39.0 0 0 0 997.0500164682558,516.1404643998011 z" />

	<path id="svg-442199874-951031848" tabindex="-1" fill="rgba(247.0,227.99999999999997,143.0,255.0)" aria-label="chicago rap 1.0" d="M1342.6673239365855,418.9382872218955 A 395.0,395.0 0 0 1 1349.5903486458092,442.76749456988205 L 1004.7747432840166,531.3010944005706 A 39.0,39.0 0 0 0 1004.091204135511,528.948337219377 z" />

	<path id="svg-442199874-929697158" tabindex="-1" fill="rgba(248.5,127.5,138.5,255.0)" aria-label="classic rock 1.0" d="M1349.5903486458092,442.76749456988205 A 395.0,395.0 0 0 1 1355.003464037832,466.9843807386385 L 1005.3092027784188,533.6921287311567 A 39.0,39.0 0 0 0 1004.7747432840166,531.3010944005706 z" />

	<path id="svg-442199874-1650813924" tabindex="-1" fill="rgba(249.50000000000003,148.0,188.5,255.0)" aria-label="conscious hip hop 1.0" d="M1355.003464037832,466.9843807386385 A 395.0,395.0 0 0 1 1358.8853070192188,491.49337274209955 L 1005.6924733512647,536.1120038909921 A 39.0,39.0 0 0 0 1005.3092027784188,533.6921287311567 z" />

	<path id="svg-442199874-400103862" tabindex="-1" fill="rgba(146.0,219.00000000000003,134.0,255.0)" aria-label="dance pop 28.0" d="M1358.8853070192188,491.49337274209955 A 395.0,395.0 0 0 1 942.1977447859214,935.2205577291672 L 964.5511697383567,579.9230424087026 A 39.0,39.0 0 0 0 1005.6924733512647,536.1120038909921 z" />

	<path id="svg-442199874-1408482749" tabindex="-1" fill="rgba(254.0,205.0,139.0,255.0)" aria-label="danish pop 1.0" d="M942.1977447859214,935.2205577291672 A 395.0,395.0 0 0 1 917.4933727421,932.8853070192188 L 962.1120038909921,579.6924733512647 A 39.0,39.0 0 0 0 964.5511697383567,579.9230424087026 z" />

	<path id="svg-442199874-873634936" tabindex="-1" fill="rgba(149.49999999999997,216.0,247.0,255.0)" aria-label="detroit hip hop 1.0" d="M917.4933727421,932.8853070192188 A 395.0,395.0 0 0 1 892.9843807386388,929.003464037832 L 959.6921287311568,579.3092027784188 A 39.0,39.0 0 0 0 962.1120038909921,579.6924733512647 z" />

	<path id="svg-442199874-2103569237" tabindex="-1" fill="rgba(254.0,180.99999999999997,131.0,255.0)" aria-label="dfw rap 7.0" d="M892.9843807386388,929.003464037832 A 395.0,395.0 0 0 1 734.8248253444731,860.5617127781042 L 944.0763751605936,572.5516627806229 A 39.0,39.0 0 0 0 959.6921287311568,579.3092027784188 z" />

	<path id="svg-442199874-573200870" tabindex="-1" fill="rgba(212.49999999999997,236.5,161.5,255.0)" aria-label="electro house 1.0" d="M734.8248253444731,860.5617127781042 A 395.0,395.0 0 0 1 715.2175240492676,845.3527308964367 L 942.1404643998011,571.0500164682558 A 39.0,39.0 0 0 0 944.0763751605936,572.5516627806229 z" />

	<path id="svg-442199874-1819940427" tabindex="-1" fill="rgba(164.49999999999997,193.0,144.5,255.0)" aria-label="electropop 4.0" d="M715.2175240492676,845.3527308964367 A 395.0,395.0 0 0 1 647.4382872218957,773.1751746555267 L 935.4483372193771,563.9236248394064 A 39.0,39.0 0 0 0 942.1404643998011,571.0500164682558 z" />

	<path id="svg-442199874-1277933280" tabindex="-1" fill="rgba(188.5,227.0,246.0,255.0)" aria-label="emo rap 2.0" d="M647.4382872218957,773.1751746555267 A 395.0,395.0 0 0 1 620.8588613826737,731.2927012701772 L 932.8240394782893,559.7883932899668 A 39.0,39.0 0 0 0 935.4483372193771,563.9236248394064 z" />

	<path id="svg-442199874-1046665075" tabindex="-1" fill="rgba(139.0,217.0,212.49999999999997,255.0)" aria-label="folk-pop 2.0" d="M620.8588613826737,731.2927012701772 A 395.0,395.0 0 0 1 599.7382880741405,686.4091983104474 L 930.7387170503582,555.3568575547024 A 39.0,39.0 0 0 0 932.8240394782893,559.7883932899668 z" />

	<path id="svg-442199874-1324829744" tabindex="-1" fill="rgba(251.0,241.5,199.0,255.0)" aria-label="gangster rap 1.0" d="M599.7382880741405,686.4091983104474 A 395.0,395.0 0 0 1 591.3326760634142,663.0617127781038 L 929.908795864489,553.0516627806229 A 39.0,39.0 0 0 0 930.7387170503582,555.3568575547024 z" />

	<path id="svg-442199874-1921242091" tabindex="-1" fill="rgba(251.75,191.25,196.75,255.0)" aria-label="irish singer-songwriter 1.0" d="M591.3326760634142,663.0617127781038 A 395.0,395.0 0 0 1 584.4096513541906,639.2325054301173 L 929.2252567159834,550.6989055994293 A 39.0,39.0 0 0 0 929.908795864489,553.0516627806229 z" />

	<path id="svg-442199874-1670313965" tabindex="-1" fill="rgba(252.25,201.5,221.75,255.0)" aria-label="latin 2.0" d="M584.4096513541906,639.2325054301173 A 395.0,395.0 0 0 1 575.1146929807812,590.5066272578997 L 928.3075266487353,545.8879961090079 A 39.0,39.0 0 0 0 929.2252567159834,550.6989055994293 z" />

	<path id="svg-442199874-1275035040" tabindex="-1" fill="rgba(200.5,237.0,194.5,255.0)" aria-label="lgbtq+ hip hop 1.0" d="M575.1146929807812,590.5066272578997 A 395.0,395.0 0 0 1 572.7794422708328,565.8022552140785 L 928.0769575912974,543.4488302616433 A 39.0,39.0 0 0 0 928.3075266487353,545.8879961090079 z" />

	<path id="svg-442199874-1058876963" tabindex="-1" fill="rgba(254.5,230.0,197.0,255.0)" aria-label="melodic rap 3.0" d="M572.7794422708328,565.8022552140785 A 395.0,395.0 0 0 1 575.1146929807813,491.49337274209927 L 928.3075266487353,536.1120038909921 A 39.0,39.0 0 0 0 928.0769575912974,543.4488302616433 z" />

	<path id="svg-442199874-1399701152" tabindex="-1" fill="rgba(202.25000000000003,235.5,251.0,255.0)" aria-label="modern rock 6.0" d="M575.1146929807813,491.49337274209927 A 395.0,395.0 0 0 1 620.8588613826743,350.7072987298218 L 932.8240394782894,522.211606710033 A 39.0,39.0 0 0 0 928.3075266487353,536.1120038909921 z" />

	<path id="svg-442199874-1204296383" tabindex="-1" fill="rgba(254.5,218.0,193.0,255.0)" aria-label="neo soul 1.0" d="M620.8588613826743,350.7072987298218 A 395.0,395.0 0 0 1 633.4904694267043,329.3484159832958 L 934.0712109054215,520.102754995819 A 39.0,39.0 0 0 0 932.8240394782894,522.211606710033 z" />

	<path id="svg-442199874-2003463579" tabindex="-1" fill="rgba(233.75,245.75,208.25,255.0)" aria-label="north carolina hip hop 1.0" d="M633.4904694267043,329.3484159832958 A 395.0,395.0 0 0 1 647.438287221896,308.82482534447274 L 935.4483372193771,518.0763751605936 A 39.0,39.0 0 0 0 934.0712109054215,520.102754995819 z" />

	<path id="svg-442199874-567294307" tabindex="-1" fill="rgba(209.75,224.0,199.75,255.0)" aria-label="pop 11.0" d="M647.438287221896,308.82482534447274 A 395.0,395.0 0 0 1 868.7674945698828,158.4096513541906 L 957.3010944005707,503.2252567159834 A 39.0,39.0 0 0 0 935.4483372193771,518.0763751605936 z" />

	<path id="svg-442199874-527829831" tabindex="-1" fill="rgba(221.75,241.0,250.50000000000003,255.0)" aria-label="pop dance 1.0" d="M868.7674945698828,158.4096513541906 A 395.0,395.0 0 0 1 892.9843807386394,152.9965359621678 L 959.6921287311568,502.69079722158114 A 39.0,39.0 0 0 0 957.3010944005707,503.2252567159834 z" />

	<path id="svg-442199874-418179060" tabindex="-1" fill="rgba(197.0,236.0,233.75,255.0)" aria-label="pop rap 1.0" d="M892.9843807386394,152.9965359621678 A 395.0,395.0 0 0 1 917.4933727421004,149.11469298078117 L 962.1120038909922,502.30752664873535 A 39.0,39.0 0 0 0 959.6921287311568,502.69079722158114 z" />

	<path id="svg-442199874-1020155847" tabindex="-1" fill="rgba(252.33333333333334,246.0,217.66666666666669,255.0)" aria-label="rap 2.0" d="M917.4933727421004,149.11469298078117 A 395.0,395.0 0 0 1 967.0000000000007,146.0 L 967.0000000000001,502.0 A 39.0,39.0 0 0 0 962.1120038909922,502.30752664873535 z" />

	<rect width="1742.4" height="14.0" x="96.80000000000001" y="936.0" id="svg-442199874-485845532" tabindex="-1" fill="rgba(0.0,0.0,0.0,0.0)" aria-label="legend with 34 series" />

	<text x="99.80000000000001" y="944.0" font-size="7px" font-family="Arial" text-anchor="left" id="svg-442199874-871790326" tabindex="-1" aria-label="Genres">Genres</text>

	<rect width="6.0" height="6.0" x="125.80000000000001" y="939.0" id="svg-442199874-1281025083" tabindex="-1" fill="rgba(239.0,201.0,31.0,255.0)" />

	<text x="134.8" y="945.0" font-size="6px" font-family="Arial" text-anchor="left" id="svg-442199874-40170008" tabindex="-1" aria-label="acoustic pop">acoustic pop</text>

	<rect width="6.0" height="6.0" x="169.8" y="939.0" id="svg-442199874-896982466" tabindex="-1" fill="rgba(242.0,0.0,22.0,255.0)" />

	<text x="178.8" y="945.0" font-size="6px" font-family="Arial" text-anchor="left" id="svg-442199874-901205084" tabindex="-1" aria-label="alternative rock">alternative rock</text>

	<rect width="6.0" height="6.0" x="220.8" y="939.0" id="svg-442199874-777457133" tabindex="-1" fill="rgba(244.0,41.0,122.0,255.0)" />

	<text x="229.8" y="945.0" font-size="6px" font-family="Arial" text-anchor="left" id="svg-442199874-193388045" tabindex="-1" aria-label="australian dance">australian dance</text>

	<rect width="6.0" height="6.0" x="273.8" y="939.0" id="svg-442199874-136157810" tabindex="-1" fill="rgba(37.0,183.0,13.0,255.0)" />

	<text x="282.8" y="945.0" font-size="6px" font-family="Arial" text-anchor="left" id="svg-442199874-122155649" tabindex="-1" aria-label="australian pop">australian pop</text>

	<rect width="6.0" height="6.0" x="320.8" y="939.0" id="svg-442199874-292138977" tabindex="-1" fill="rgba(253.0,155.0,23.0,255.0)" />

	<text x="329.8" y="945.0" font-size="6px" font-family="Arial" text-anchor="left" id="svg-442199874-748842359" tabindex="-1" aria-label="beatlesque">beatlesque</text>

	<rect width="6.0" height="6.0" x="359.8" y="939.0" id="svg-442199874-1208532123" tabindex="-1" fill="rgba(44.0,177.0,239.0,255.0)" />

	<text x="368.8" y="945.0" font-size="6px" font-family="Arial" text-anchor="left" id="svg-442199874-1893960929" tabindex="-1" aria-label="boy band">boy band</text>

	<rect width="6.0" height="6.0" x="394.8" y="939.0" id="svg-442199874-749282235" tabindex="-1" fill="rgba(253.0,107.0,7.0,255.0)" />

	<text x="403.8" y="945.0" font-size="6px" font-family="Arial" text-anchor="left" id="svg-442199874-333392524" tabindex="-1" aria-label="brostep">brostep</text>

	<rect width="6.0" height="6.0" x="425.8" y="939.0" id="svg-442199874-515809288" tabindex="-1" fill="rgba(170.0,218.0,68.0,255.0)" />

	<text x="434.8" y="945.0" font-size="6px" font-family="Arial" text-anchor="left" id="svg-442199874-1926673338" tabindex="-1" aria-label="cali rap">cali rap</text>

	<rect width="6.0" height="6.0" x="455.8" y="939.0" id="svg-442199874-394785440" tabindex="-1" fill="rgba(74.0,131.0,34.0,255.0)" />

	<text x="464.8" y="945.0" font-size="6px" font-family="Arial" text-anchor="left" id="svg-442199874-2112233878" tabindex="-1" aria-label="canadian contemporary r&b">canadian contemporary r&b</text>

	<rect width="6.0" height="6.0" x="537.8" y="939.0" id="svg-442199874-372469954" tabindex="-1" fill="rgba(122.0,199.0,237.0,255.0)" />

	<text x="546.8" y="945.0" font-size="6px" font-family="Arial" text-anchor="left" id="svg-442199874-1371495133" tabindex="-1" aria-label="canadian hip hop">canadian hip hop</text>

	<rect width="6.0" height="6.0" x="591.8" y="939.0" id="svg-442199874-2030411960" tabindex="-1" fill="rgba(23.0,179.0,170.0,255.0)" />

	<text x="600.8" y="945.0" font-size="6px" font-family="Arial" text-anchor="left" id="svg-442199874-899929247" tabindex="-1" aria-label="canadian pop">canadian pop</text>

	<rect width="6.0" height="6.0" x="636.8" y="939.0" id="svg-442199874-949684105" tabindex="-1" fill="rgba(247.0,227.99999999999997,143.0,255.0)" />

	<text x="645.8" y="945.0" font-size="6px" font-family="Arial" text-anchor="left" id="svg-442199874-333040629" tabindex="-1" aria-label="chicago rap">chicago rap</text>

	<rect width="6.0" height="6.0" x="677.8" y="939.0" id="svg-442199874-1200470358" tabindex="-1" fill="rgba(248.5,127.5,138.5,255.0)" />

	<text x="686.8" y="945.0" font-size="6px" font-family="Arial" text-anchor="left" id="svg-442199874-1822525972" tabindex="-1" aria-label="classic rock">classic rock</text>

	<rect width="6.0" height="6.0" x="719.8" y="939.0" id="svg-442199874-208043846" tabindex="-1" fill="rgba(249.50000000000003,148.0,188.5,255.0)" />

	<text x="728.8" y="945.0" font-size="6px" font-family="Arial" text-anchor="left" id="svg-442199874-1371376476" tabindex="-1" aria-label="conscious hip hop">conscious hip hop</text>

	<rect width="6.0" height="6.0" x="776.8" y="939.0" id="svg-442199874-2068897588" tabindex="-1" fill="rgba(146.0,219.00000000000003,134.0,255.0)" />

	<text x="785.8" y="945.0" font-size="6px" font-family="Arial" text-anchor="left" id="svg-442199874-457247584" tabindex="-1" aria-label="dance pop">dance pop</text>

	<rect width="6.0" height="6.0" x="814.8" y="939.0" id="svg-442199874-610454273" tabindex="-1" fill="rgba(254.0,205.0,139.0,255.0)" />

	<text x="823.8" y="945.0" font-size="6px" font-family="Arial" text-anchor="left" id="svg-442199874-431506362" tabindex="-1" aria-label="danish pop">danish pop</text>

	<rect width="6.0" height="6.0" x="853.8" y="939.0" id="svg-442199874-1693226694" tabindex="-1" fill="rgba(149.49999999999997,216.0,247.0,255.0)" />

	<text x="862.8" y="945.0" font-size="6px" font-family="Arial" text-anchor="left" id="svg-442199874-2003147568" tabindex="-1" aria-label="detroit hip hop">detroit hip hop</text>

	<rect width="6.0" height="6.0" x="901.8" y="939.0" id="svg-442199874-1164799006" tabindex="-1" fill="rgba(254.0,180.99999999999997,131.0,255.0)" />

	<text x="910.8" y="945.0" font-size="6px" font-family="Arial" text-anchor="left" id="svg-442199874-504582810" tabindex="-1" aria-label="dfw rap">dfw rap</text>

	<rect width="6.0" height="6.0" x="932.8" y="939.0" id="svg-442199874-516537656" tabindex="-1" fill="rgba(212.49999999999997,236.5,161.5,255.0)" />

	<text x="941.8" y="945.0" font-size="6px" font-family="Arial" text-anchor="left" id="svg-442199874-1160649162" tabindex="-1" aria-label="electro house">electro house</text>

	<rect width="6.0" height="6.0" x="978.8" y="939.0" id="svg-442199874-1796047085" tabindex="-1" fill="rgba(164.49999999999997,193.0,144.5,255.0)" />

	<text x="987.8" y="945.0" font-size="6px" font-family="Arial" text-anchor="left" id="svg-442199874-1871612052" tabindex="-1" aria-label="electropop">electropop</text>

	<rect width="6.0" height="6.0" x="1016.8" y="939.0" id="svg-442199874-1023268896" tabindex="-1" fill="rgba(188.5,227.0,246.0,255.0)" />

	<text x="1025.8" y="945.0" font-size="6px" font-family="Arial" text-anchor="left" id="svg-442199874-153646652" tabindex="-1" aria-label="emo rap">emo rap</text>

	<rect width="6.0" height="6.0" x="1049.8" y="939.0" id="svg-442199874-237344028" tabindex="-1" fill="rgba(139.0,217.0,212.49999999999997,255.0)" />

	<text x="1058.8" y="945.0" font-size="6px" font-family="Arial" text-anchor="left" id="svg-442199874-368342628" tabindex="-1" aria-label="folk-pop">folk-pop</text>

	<rect width="6.0" height="6.0" x="1081.8" y="939.0" id="svg-442199874-1192923170" tabindex="-1" fill="rgba(251.0,241.5,199.0,255.0)" />

	<text x="1090.8" y="945.0" font-size="6px" font-family="Arial" text-anchor="left" id="svg-442199874-231311211" tabindex="-1" aria-label="gangster rap">gangster rap</text>

	<rect width="6.0" height="6.0" x="1125.8" y="939.0" id="svg-442199874-795242171" tabindex="-1" fill="rgba(251.75,191.25,196.75,255.0)" />

	<text x="1134.8" y="945.0" font-size="6px" font-family="Arial" text-anchor="left" id="svg-442199874-429353573" tabindex="-1" aria-label="irish singer-songwriter">irish singer-songwriter</text>

	<rect width="6.0" height="6.0" x="1192.8" y="939.0" id="svg-442199874-169833205" tabindex="-1" fill="rgba(252.25,201.5,221.75,255.0)" />

	<text x="1201.8" y="945.0" font-size="6px" font-family="Arial" text-anchor="left" id="svg-442199874-1261198850" tabindex="-1" aria-label="latin">latin</text>

	<rect width="6.0" height="6.0" x="1214.8" y="939.0" id="svg-442199874-1470358122" tabindex="-1" fill="rgba(200.5,237.0,194.5,255.0)" />

	<text x="1223.8" y="945.0" font-size="6px" font-family="Arial" text-anchor="left" id="svg-442199874-1975873209" tabindex="-1" aria-label="lgbtq+ hip hop">lgbtq+ hip hop</text>

	<rect width="6.0" height="6.0" x="1262.8" y="939.0" id="svg-442199874-79438382" tabindex="-1" fill="rgba(254.5,230.0,197.0,255.0)" />

	<text x="1271.8" y="945.0" font-size="6px" font-family="Arial" text-anchor="left" id="svg-442199874-768192757" tabindex="-1" aria-label="melodic rap">melodic rap</text>

	<rect width="6.0" height="6.0" x="1303.8" y="939.0" id="svg-442199874-1697752980" tabindex="-1" fill="rgba(202.25000000000003,235.5,251.0,255.0)" />

	<text x="1312.8" y="945.0" font-size="6px" font-family="Arial" text-anchor="left" id="svg-442199874-996125997" tabindex="-1" aria-label="modern rock">modern rock</text>

	<rect width="6.0" height="6.0" x="1347.8" y="939.0" id="svg-442199874-1578587450" tabindex="-1" fill="rgba(254.5,218.0,193.0,255.0)" />

	<text x="1356.8" y="945.0" font-size="6px" font-family="Arial" text-anchor="left" id="svg-442199874-1052317717" tabindex="-1" aria-label="neo soul">neo soul</text>

	<rect width="6.0" height="6.0" x="1380.8" y="939.0" id="svg-442199874-1457263953" tabindex="-1" fill="rgba(233.75,245.75,208.25,255.0)" />

	<text x="1389.8" y="945.0" font-size="6px" font-family="Arial" text-anchor="left" id="svg-442199874-271379554" tabindex="-1" aria-label="north carolina hip hop">north carolina hip hop</text>

	<rect width="6.0" height="6.0" x="1446.8" y="939.0" id="svg-442199874-1962329560" tabindex="-1" fill="rgba(209.75,224.0,199.75,255.0)" />

	<text x="1455.8" y="945.0" font-size="6px" font-family="Arial" text-anchor="left" id="svg-442199874-41489123" tabindex="-1" aria-label="pop">pop</text>

	<rect width="6.0" height="6.0" x="1467.8" y="939.0" id="svg-442199874-884603232" tabindex="-1" fill="rgba(221.75,241.0,250.50000000000003,255.0)" />

	<text x="1476.8" y="945.0" font-size="6px" font-family="Arial" text-anchor="left" id="svg-442199874-1124162665" tabindex="-1" aria-label="pop dance">pop dance</text>

	<rect width="6.0" height="6.0" x="1505.8" y="939.0" id="svg-442199874-26970580" tabindex="-1" fill="rgba(197.0,236.0,233.75,255.0)" />

	<text x="1514.8" y="945.0" font-size="6px" font-family="Arial" text-anchor="left" id="svg-442199874-1270836494" tabindex="-1" aria-label="pop rap">pop rap</text>

	<rect width="6.0" height="6.0" x="1536.8" y="939.0" id="svg-442199874-817299424" tabindex="-1" fill="rgba(252.33333333333334,246.0,217.66666666666669,255.0)" />

	<text x="1545.8" y="945.0" font-size="6px" font-family="Arial" text-anchor="left" id="svg-442199874-2031951755" tabindex="-1" aria-label="rap">rap</text>

	<div id= "svg-442199874-nav" class= "svgNavigation" role= "application" ><ul role= "tree" ><li id= "svg-442199874-1345900725-nav" tabindex= "-1" role= "treeitem" aria-labelledby= "svg-442199874-1345900725" ></li><li id= "svg-442199874-735937428-nav" tabindex= "-1" role= "treeitem" aria-labelledby= "svg-442199874-735937428" aria-expanded= "false" ><ul role= "group" ></ul></li><li id= "svg-442199874-839998248-nav" tabindex= "-1" role= "treeitem" aria-labelledby= "svg-442199874-839998248" aria-expanded= "false" ><ul role= "group" ><li id= "svg-442199874-1423983012-nav" tabindex= "-1" role= "treeitem" aria-labelledby= "svg-442199874-1423983012" ></li><li id= "svg-442199874-746074699-nav" tabindex= "-1" role= "treeitem" aria-labelledby= "svg-442199874-746074699" ></li><li id= "svg-442199874-127791068-nav" tabindex= "-1" role= "treeitem" aria-labelledby= "svg-442199874-127791068" ></li><li id= "svg-442199874-405896924-nav" tabindex= "-1" role= "treeitem" aria-labelledby= "svg-442199874-405896924" ></li><li id= "svg-442199874-1309335839-nav" tabindex= "-1" role= "treeitem" aria-labelledby= "svg-442199874-1309335839" ></li><li id= "svg-442199874-596470015-nav" tabindex= "-1" role= "treeitem" aria-labelledby= "svg-442199874-596470015" ></li><li id= "svg-442199874-1267105885-nav" tabindex= "-1" role= "treeitem" aria-labelledby= "svg-442199874-1267105885" ></li><li id= "svg-442199874-1481818223-nav" tabindex= "-1" role= "treeitem" aria-labelledby= "svg-442199874-1481818223" ></li><li id= "svg-442199874-1095352419-nav" tabindex= "-1" role= "treeitem" aria-labelledby= "svg-442199874-1095352419" ></li><li id= "svg-442199874-164332069-nav" tabindex= "-1" role= "treeitem" aria-labelledby= "svg-442199874-164332069" ></li><li id= "svg-442199874-1991278377-nav" tabindex= "-1" role= "treeitem" aria-labelledby= "svg-442199874-1991278377" ></li><li id= "svg-442199874-951031848-nav" tabindex= "-1" role= "treeitem" aria-labelledby= "svg-442199874-951031848" ></li><li id= "svg-442199874-929697158-nav" tabindex= "-1" role= "treeitem" aria-labelledby= "svg-442199874-929697158" ></li><li id= "svg-442199874-1650813924-nav" tabindex= "-1" role= "treeitem" aria-labelledby= "svg-442199874-1650813924" ></li><li id= "svg-442199874-400103862-nav" tabindex= "-1" role= "treeitem" aria-labelledby= "svg-442199874-400103862" ></li><li id= "svg-442199874-1408482749-nav" tabindex= "-1" role= "treeitem" aria-labelledby= "svg-442199874-1408482749" ></li><li id= "svg-442199874-873634936-nav" tabindex= "-1" role= "treeitem" aria-labelledby= "svg-442199874-873634936" ></li><li id= "svg-442199874-2103569237-nav" tabindex= "-1" role= "treeitem" aria-labelledby= "svg-442199874-2103569237" ></li><li id= "svg-442199874-573200870-nav" tabindex= "-1" role= "treeitem" aria-labelledby= "svg-442199874-573200870" ></li><li id= "svg-442199874-1819940427-nav" tabindex= "-1" role= "treeitem" aria-labelledby= "svg-442199874-1819940427" ></li><li id= "svg-442199874-1277933280-nav" tabindex= "-1" role= "treeitem" aria-labelledby= "svg-442199874-1277933280" ></li><li id= "svg-442199874-1046665075-nav" tabindex= "-1" role= "treeitem" aria-labelledby= "svg-442199874-1046665075" ></li><li id= "svg-442199874-1324829744-nav" tabindex= "-1" role= "treeitem" aria-labelledby= "svg-442199874-1324829744" ></li><li id= "svg-442199874-1921242091-nav" tabindex= "-1" role= "treeitem" aria-labelledby= "svg-442199874-1921242091" ></li><li id= "svg-442199874-1670313965-nav" tabindex= "-1" role= "treeitem" aria-labelledby= "svg-442199874-1670313965" ></li><li id= "svg-442199874-1275035040-nav" tabindex= "-1" role= "treeitem" aria-labelledby= "svg-442199874-1275035040" ></li><li id= "svg-442199874-1058876963-nav" tabindex= "-1" role= "treeitem" aria-labelledby= "svg-442199874-1058876963" ></li><li id= "svg-442199874-1399701152-nav" tabindex= "-1" role= "treeitem" aria-labelledby= "svg-442199874-1399701152" ></li><li id= "svg-442199874-1204296383-nav" tabindex= "-1" role= "treeitem" aria-labelledby= "svg-442199874-1204296383" ></li><li id= "svg-442199874-2003463579-nav" tabindex= "-1" role= "treeitem" aria-labelledby= "svg-442199874-2003463579" ></li><li id= "svg-442199874-567294307-nav" tabindex= "-1" role= "treeitem" aria-labelledby= "svg-442199874-567294307" ></li><li id= "svg-442199874-527829831-nav" tabindex= "-1" role= "treeitem" aria-labelledby= "svg-442199874-527829831" ></li><li id= "svg-442199874-418179060-nav" tabindex= "-1" role= "treeitem" aria-labelledby= "svg-442199874-418179060" ></li><li id= "svg-442199874-1020155847-nav" tabindex= "-1" role= "treeitem" aria-labelledby= "svg-442199874-1020155847" ></li></ul></li><li id= "svg-442199874-1242027525-nav" tabindex= "-1" role= "treeitem" aria-labelledby= "svg-442199874-1242027525" aria-expanded= "false" ><ul role= "group" ></ul></li><li id= "svg-442199874-485845532-nav" tabindex= "-1" role= "treeitem" aria-labelledby= "svg-442199874-485845532" aria-expanded= "false" ><ul role= "group" ><li id= "svg-442199874-40170008-nav" tabindex= "-1" role= "treeitem" aria-labelledby= "svg-442199874-40170008" ></li><li id= "svg-442199874-901205084-nav" tabindex= "-1" role= "treeitem" aria-labelledby= "svg-442199874-901205084" ></li><li id= "svg-442199874-193388045-nav" tabindex= "-1" role= "treeitem" aria-labelledby= "svg-442199874-193388045" ></li><li id= "svg-442199874-122155649-nav" tabindex= "-1" role= "treeitem" aria-labelledby= "svg-442199874-122155649" ></li><li id= "svg-442199874-748842359-nav" tabindex= "-1" role= "treeitem" aria-labelledby= "svg-442199874-748842359" ></li><li id= "svg-442199874-1893960929-nav" tabindex= "-1" role= "treeitem" aria-labelledby= "svg-442199874-1893960929" ></li><li id= "svg-442199874-333392524-nav" tabindex= "-1" role= "treeitem" aria-labelledby= "svg-442199874-333392524" ></li><li id= "svg-442199874-1926673338-nav" tabindex= "-1" role= "treeitem" aria-labelledby= "svg-442199874-1926673338" ></li><li id= "svg-442199874-2112233878-nav" tabindex= "-1" role= "treeitem" aria-labelledby= "svg-442199874-2112233878" ></li><li id= "svg-442199874-1371495133-nav" tabindex= "-1" role= "treeitem" aria-labelledby= "svg-442199874-1371495133" ></li><li id= "svg-442199874-899929247-nav" tabindex= "-1" role= "treeitem" aria-labelledby= "svg-442199874-899929247" ></li><li id= "svg-442199874-333040629-nav" tabindex= "-1" role= "treeitem" aria-labelledby= "svg-442199874-333040629" ></li><li id= "svg-442199874-1822525972-nav" tabindex= "-1" role= "treeitem" aria-labelledby= "svg-442199874-1822525972" ></li><li id= "svg-442199874-1371376476-nav" tabindex= "-1" role= "treeitem" aria-labelledby= "svg-442199874-1371376476" ></li><li id= "svg-442199874-457247584-nav" tabindex= "-1" role= "treeitem" aria-labelledby= "svg-442199874-457247584" ></li><li id= "svg-442199874-431506362-nav" tabindex= "-1" role= "treeitem" aria-labelledby= "svg-442199874-431506362" ></li><li id= "svg-442199874-2003147568-nav" tabindex= "-1" role= "treeitem" aria-labelledby= "svg-442199874-2003147568" ></li><li id= "svg-442199874-504582810-nav" tabindex= "-1" role= "treeitem" aria-labelledby= "svg-442199874-504582810" ></li><li id= "svg-442199874-1160649162-nav" tabindex= "-1" role= "treeitem" aria-labelledby= "svg-442199874-1160649162" ></li><li id= "svg-442199874-1871612052-nav" tabindex= "-1" role= "treeitem" aria-labelledby= "svg-442199874-1871612052" ></li><li id= "svg-442199874-153646652-nav" tabindex= "-1" role= "treeitem" aria-labelledby= "svg-442199874-153646652" ></li><li id= "svg-442199874-368342628-nav" tabindex= "-1" role= "treeitem" aria-labelledby= "svg-442199874-368342628" ></li><li id= "svg-442199874-231311211-nav" tabindex= "-1" role= "treeitem" aria-labelledby= "svg-442199874-231311211" ></li><li id= "svg-442199874-429353573-nav" tabindex= "-1" role= "treeitem" aria-labelledby= "svg-442199874-429353573" ></li><li id= "svg-442199874-1261198850-nav" tabindex= "-1" role= "treeitem" aria-labelledby= "svg-442199874-1261198850" ></li><li id= "svg-442199874-1975873209-nav" tabindex= "-1" role= "treeitem" aria-labelledby= "svg-442199874-1975873209" ></li><li id= "svg-442199874-768192757-nav" tabindex= "-1" role= "treeitem" aria-labelledby= "svg-442199874-768192757" ></li><li id= "svg-442199874-996125997-nav" tabindex= "-1" role= "treeitem" aria-labelledby= "svg-442199874-996125997" ></li><li id= "svg-442199874-1052317717-nav" tabindex= "-1" role= "treeitem" aria-labelledby= "svg-442199874-1052317717" ></li><li id= "svg-442199874-271379554-nav" tabindex= "-1" role= "treeitem" aria-labelledby= "svg-442199874-271379554" ></li><li id= "svg-442199874-41489123-nav" tabindex= "-1" role= "treeitem" aria-labelledby= "svg-442199874-41489123" ></li><li id= "svg-442199874-1124162665-nav" tabindex= "-1" role= "treeitem" aria-labelledby= "svg-442199874-1124162665" ></li><li id= "svg-442199874-1270836494-nav" tabindex= "-1" role= "treeitem" aria-labelledby= "svg-442199874-1270836494" ></li><li id= "svg-442199874-2031951755-nav" tabindex= "-1" role= "treeitem" aria-labelledby= "svg-442199874-2031951755" ></li></ul></li></ul></div>
</svg>
