<svg width="1936" height="1000"
	xmlns="http://www.w3.org/2000/svg" id="svg-480903748" tabindex="-1" role="img">

	<rect width="100.0%" height="100.0%" x="0.0%" y="0.0%" id="svg-480903748-2095064787" tabindex="-1" fill="white" aria-label="Top Wine Reviews Based on Type,  with 23 slices. Use the arrow keys to navigate the chart." />

	<rect width="1742.0" height="780.0" x="96.0" y="170.0" id="svg-480903748-2095486832" tabindex="-1" fill="white" aria-label="Chart Area 23 slices." />

	<rect width="0.0" height="0.0" x="96.80000000000001" y="930.0" id="svg-480903748-1681920301" tabindex="-1" />

	<rect width="1742.4" height="50.0" x="96.80000000000001" y="950.0" id="svg-480903748-837457281" tabindex="-1" fill="rgba(0.0,0.0,0.0,0.0)" aria-label="x axis" />

	<text x="96.80000000000001" y="1000.0" font-size="14px" font-family="Arial" text-anchor="left" id="svg-480903748-589273327" tabindex="-1"></text>

	<rect width="0.0" height="0.0" x="96.80000000000001" y="930.0" id="svg-480903748-2081652693" tabindex="-1" />

	<rect width="96.80000000000001" height="780.0" x="0.0" y="150.0" id="svg-480903748-406765571" tabindex="-1" fill="rgba(0.0,0.0,0.0,0.0)" aria-label="y axis" />

	<text x="0.0" y="930.0" font-size="14px" font-family="Arial" text-anchor="left" transform="rotate(0.0, 0.0, 930)" id="svg-480903748-2107443224" tabindex="-1"></text>

	<text x="815.0" y="62.0" font-size="20px" font-family="Arial" text-anchor="left" id="svg-480903748-572145572" tabindex="-1">Top Wine Reviews Based on Type</text>

	<text x="860.0" y="134.0" font-size="15px" font-family="Arial" text-anchor="left" id="svg-480903748-1158676965" tabindex="-1">Praised wine categorized by type</text>

	<path id="svg-480903748-1904783235" tabindex="-1" fill="rgba(253.0,107.0,7.0,255.0)" aria-label="Cabernet Sauvignon 5.0" d="M967.0,150.0 A 390.0,390.0 0 0 1 1164.9986077761246,203.99917958624502 L 986.7998607776125,506.3999179586245 A 39.0,39.0 0 0 0 967.0,501.0 z" />

	<path id="svg-480903748-1810458830" tabindex="-1" fill="rgba(150.0,62.0,153.0,255.0)" aria-label="Cabernet Sauvignon-Syrah 1.0" d="M1164.9986077761246,203.99917958624502 A 390.0,390.0 0 0 1 1199.5932713987456,226.94989202999875 L 990.2593271398746,508.69498920299986 A 39.0,39.0 0 0 0 986.7998607776125,506.3999179586245 z" />

	<path id="svg-480903748-2083999882" tabindex="-1" fill="rgba(239.0,201.0,31.0,255.0)" aria-label="Chardonnay 7.0" d="M1199.5932713987456,226.94989202999875 A 390.0,390.0 0 0 1 1350.247270318163,467.73984643195837 L 1005.3247270318163,532.7739846431958 A 39.0,39.0 0 0 0 990.2593271398746,508.69498920299986 z" />

	<path id="svg-480903748-611520720" tabindex="-1" fill="rgba(242.0,0.0,22.0,255.0)" aria-label="Friulano 1.0" d="M1350.247270318163,467.73984643195837 A 390.0,390.0 0 0 1 1355.7570472278103,508.88797289288135 L 1005.875704722781,536.8887972892882 A 39.0,39.0 0 0 0 1005.3247270318163,532.7739846431958 z" />

	<path id="svg-480903748-271800170" tabindex="-1" fill="rgba(244.0,41.0,122.0,255.0)" aria-label="Malbec 1.0" d="M1355.7570472278103,508.88797289288135 A 390.0,390.0 0 0 1 1356.8616113810745,550.3886462713884 L 1005.9861611381075,541.0388646271389 A 39.0,39.0 0 0 0 1005.875704722781,536.8887972892882 z" />

	<path id="svg-480903748-809300666" tabindex="-1" fill="rgba(253.0,155.0,23.0,255.0)" aria-label="Mavrud 1.0" d="M1356.8616113810745,550.3886462713884 A 390.0,390.0 0 0 1 1353.5484463743742,591.7716003766305 L 1005.6548446374375,545.177160037663 A 39.0,39.0 0 0 0 1005.9861611381075,541.0388646271389 z" />

	<path id="svg-480903748-1984513847" tabindex="-1" fill="rgba(44.0,177.0,239.0,255.0)" aria-label="Mencía 1.0" d="M1353.5484463743742,591.7716003766305 A 390.0,390.0 0 0 1 1345.8550954416023,632.567902957421 L 1004.8855095441602,549.2567902957421 A 39.0,39.0 0 0 0 1005.6548446374375,545.177160037663 z" />

	<path id="svg-480903748-1241529534" tabindex="-1" fill="rgba(23.0,179.0,170.0,255.0)" aria-label="Palomino 1.0" d="M1345.8550954416023,632.567902957421 A 390.0,390.0 0 0 1 1333.868736031785,672.3152694228471 L 1003.6868736031785,553.2315269422847 A 39.0,39.0 0 0 0 1004.8855095441602,549.2567902957421 z" />

	<path id="svg-480903748-1082309267" tabindex="-1" fill="rgba(37.0,183.0,13.0,255.0)" aria-label="Petite Sirah 1.0" d="M1333.868736031785,672.3152694228471 A 390.0,390.0 0 0 1 1317.7251919550658,710.5633012347095 L 1002.0725191955066,557.056330123471 A 39.0,39.0 0 0 0 1003.6868736031785,553.2315269422847 z" />

	<path id="svg-480903748-402405659" tabindex="-1" fill="rgba(254.0,180.99999999999997,131.0,255.0)" aria-label="Pinot Noir 12.0" d="M1317.7251919550658,710.5633012347095 A 390.0,390.0 0 0 1 904.9500650698761,925.0322136849948 L 960.7950065069876,578.5032213684995 A 39.0,39.0 0 0 0 1002.0725191955066,557.056330123471 z" />

	<path id="svg-480903748-724608044" tabindex="-1" fill="rgba(202.50000000000003,158.5,204.0,255.0)" aria-label="Provence red blend 1.0" d="M904.9500650698761,925.0322136849948 A 390.0,390.0 0 0 1 864.3731708107616,916.2548789458588 L 956.7373170810762,577.6254878945858 A 39.0,39.0 0 0 0 960.7950065069876,578.5032213684995 z" />

	<path id="svg-480903748-1621002296" tabindex="-1" fill="rgba(247.0,227.99999999999997,143.0,255.0)" aria-label="Red Blend 3.0" d="M864.3731708107616,916.2548789458588 A 390.0,390.0 0 0 1 751.3882472290362,864.9793409849814 L 945.4388247229036,572.4979340984981 A 39.0,39.0 0 0 0 956.7373170810762,577.6254878945858 z" />

	<path id="svg-480903748-899543194" tabindex="-1" fill="rgba(248.5,127.5,138.5,255.0)" aria-label="Rhône-style White Blend 1.0" d="M751.3882472290362,864.9793409849814 A 390.0,390.0 0 0 1 718.0649453801798,840.218817833638 L 942.106494538018,570.0218817833638 A 39.0,39.0 0 0 0 945.4388247229036,572.4979340984981 z" />

	<path id="svg-480903748-1138697171" tabindex="-1" fill="rgba(249.50000000000003,148.0,188.5,255.0)" aria-label="Riesling 1.0" d="M718.0649453801798,840.218817833638 A 390.0,390.0 0 0 1 687.5624589633318,812.0563556680497 L 939.0562458963332,567.205635566805 A 39.0,39.0 0 0 0 942.106494538018,570.0218817833638 z" />

	<path id="svg-480903748-1835073088" tabindex="-1" fill="rgba(254.0,205.0,139.0,255.0)" aria-label="Rosé 1.0" d="M687.5624589633318,812.0563556680497 A 390.0,390.0 0 0 1 660.2264278664968,780.8110783175273 L 936.3226427866497,564.0811078317528 A 39.0,39.0 0 0 0 939.0562458963332,567.205635566805 z" />

	<path id="svg-480903748-2032891036" tabindex="-1" fill="rgba(149.49999999999997,216.0,247.0,255.0)" aria-label="Sangiovese 7.0" d="M660.2264278664968,780.8110783175273 A 390.0,390.0 0 0 1 578.2449083658801,508.86354662863795 L 928.124490836588,536.8863546628638 A 39.0,39.0 0 0 0 936.3226427866497,564.0811078317528 z" />

	<path id="svg-480903748-602423811" tabindex="-1" fill="rgba(139.0,217.0,212.49999999999997,255.0)" aria-label="Sauvignon Blanc 3.0" d="M578.2449083658801,508.86354662863795 A 390.0,390.0 0 0 1 607.6985033112973,388.33446509751093 L 931.0698503311297,524.8334465097511 A 39.0,39.0 0 0 0 928.124490836588,536.8863546628638 z" />

	<path id="svg-480903748-429075478" tabindex="-1" fill="rgba(146.0,219.00000000000003,134.0,255.0)" aria-label="Sparkling Blend 1.0" d="M607.6985033112973,388.33446509751093 A 390.0,390.0 0 0 1 625.8560827995265,351.00045566955333 L 932.8856082799526,521.1000455669554 A 39.0,39.0 0 0 0 931.0698503311297,524.8334465097511 z" />

	<path id="svg-480903748-1944798106" tabindex="-1" fill="rgba(254.5,218.0,193.0,255.0)" aria-label="Syrah 2.0" d="M625.8560827995265,351.00045566955333 A 390.0,390.0 0 0 1 673.5187336908991,283.1561830107515 L 937.6518733690899,514.3156183010751 A 39.0,39.0 0 0 0 932.8856082799526,521.1000455669554 z" />

	<path id="svg-480903748-1363560175" tabindex="-1" fill="rgba(228.75,206.75,229.5,255.0)" aria-label="Tannat 1.0" d="M673.5187336908991,283.1561830107515 A 390.0,390.0 0 0 1 702.4837142604304,253.41469929784887 L 940.548371426043,511.34146992978486 A 39.0,39.0 0 0 0 937.6518733690899,514.3156183010751 z" />

	<path id="svg-480903748-811597470" tabindex="-1" fill="rgba(251.0,241.5,199.0,255.0)" aria-label="Tempranillo 1.0" d="M702.4837142604304,253.41469929784887 A 390.0,390.0 0 0 1 734.4460694744097,226.92066596931232 L 943.744606947441,508.6920665969312 A 39.0,39.0 0 0 0 940.548371426043,511.34146992978486 z" />

	<path id="svg-480903748-808228639" tabindex="-1" fill="rgba(251.75,191.25,196.75,255.0)" aria-label="Tempranillo Blend 1.0" d="M734.4460694744097,226.92066596931232 A 390.0,390.0 0 0 1 769.0436168954592,203.97430100040225 L 947.2043616895459,506.3974301000402 A 39.0,39.0 0 0 0 943.744606947441,508.6920665969312 z" />

	<path id="svg-480903748-426960147" tabindex="-1" fill="rgba(252.25,201.5,221.75,255.0)" aria-label="Tinta de Toro 5.0" d="M769.0436168954592,203.97430100040225 A 390.0,390.0 0 0 1 967.049008845267,150.00000307931657 L 967.0049008845267,501.00000030793166 A 39.0,39.0 0 0 0 947.2043616895459,506.3974301000402 z" />

	<rect width="1742.4" height="20.0" x="96.80000000000001" y="930.0" id="svg-480903748-2061543916" tabindex="-1" fill="rgba(0.0,0.0,0.0,0.0)" aria-label="legend with 23 series" />

	<text x="100.80000000000001" y="943.0" font-size="11px" font-family="Arial" text-anchor="left" id="svg-480903748-897848096" tabindex="-1" aria-label="Variety">Variety</text>

	<rect width="9.0" height="9.0" x="139.8" y="934.0" id="svg-480903748-1640296160" tabindex="-1" fill="rgba(253.0,107.0,7.0,255.0)" />

	<text x="152.8" y="943.0" font-size="9px" font-family="Arial" text-anchor="left" id="svg-480903748-1863374262" tabindex="-1" aria-label="Cabernet Sauvignon">Cabernet Sauvignon</text>

	<rect width="9.0" height="9.0" x="241.8" y="934.0" id="svg-480903748-272678513" tabindex="-1" fill="rgba(150.0,62.0,153.0,255.0)" />

	<text x="254.8" y="943.0" font-size="9px" font-family="Arial" text-anchor="left" id="svg-480903748-88646218" tabindex="-1" aria-label="Cabernet Sauvignon-Syrah">Cabernet Sauvignon-Syrah</text>

	<rect width="9.0" height="9.0" x="371.8" y="934.0" id="svg-480903748-1128132589" tabindex="-1" fill="rgba(239.0,201.0,31.0,255.0)" />

	<text x="384.8" y="943.0" font-size="9px" font-family="Arial" text-anchor="left" id="svg-480903748-711540569" tabindex="-1" aria-label="Chardonnay">Chardonnay</text>

	<rect width="9.0" height="9.0" x="439.8" y="934.0" id="svg-480903748-1062186835" tabindex="-1" fill="rgba(242.0,0.0,22.0,255.0)" />

	<text x="452.8" y="943.0" font-size="9px" font-family="Arial" text-anchor="left" id="svg-480903748-2144665602" tabindex="-1" aria-label="Friulano">Friulano</text>

	<rect width="9.0" height="9.0" x="489.8" y="934.0" id="svg-480903748-1396431506" tabindex="-1" fill="rgba(244.0,41.0,122.0,255.0)" />

	<text x="502.8" y="943.0" font-size="9px" font-family="Arial" text-anchor="left" id="svg-480903748-810267739" tabindex="-1" aria-label="Malbec">Malbec</text>

	<rect width="9.0" height="9.0" x="535.8" y="934.0" id="svg-480903748-1916575798" tabindex="-1" fill="rgba(253.0,155.0,23.0,255.0)" />

	<text x="548.8" y="943.0" font-size="9px" font-family="Arial" text-anchor="left" id="svg-480903748-633240419" tabindex="-1" aria-label="Mavrud">Mavrud</text>

	<rect width="9.0" height="9.0" x="583.8" y="934.0" id="svg-480903748-685558284" tabindex="-1" fill="rgba(44.0,177.0,239.0,255.0)" />

	<text x="596.8" y="943.0" font-size="9px" font-family="Arial" text-anchor="left" id="svg-480903748-1171802656" tabindex="-1" aria-label="Mencía">Mencía</text>

	<rect width="9.0" height="9.0" x="641.8" y="934.0" id="svg-480903748-1391624125" tabindex="-1" fill="rgba(23.0,179.0,170.0,255.0)" />

	<text x="654.8" y="943.0" font-size="9px" font-family="Arial" text-anchor="left" id="svg-480903748-79782883" tabindex="-1" aria-label="Palomino">Palomino</text>

	<rect width="9.0" height="9.0" x="696.8" y="934.0" id="svg-480903748-1250121181" tabindex="-1" fill="rgba(37.0,183.0,13.0,255.0)" />

	<text x="709.8" y="943.0" font-size="9px" font-family="Arial" text-anchor="left" id="svg-480903748-1292738535" tabindex="-1" aria-label="Petite Sirah">Petite Sirah</text>

	<rect width="9.0" height="9.0" x="761.8" y="934.0" id="svg-480903748-205721196" tabindex="-1" fill="rgba(254.0,180.99999999999997,131.0,255.0)" />

	<text x="774.8" y="943.0" font-size="9px" font-family="Arial" text-anchor="left" id="svg-480903748-51554940" tabindex="-1" aria-label="Pinot Noir">Pinot Noir</text>

	<rect width="9.0" height="9.0" x="819.8" y="934.0" id="svg-480903748-1399794302" tabindex="-1" fill="rgba(202.50000000000003,158.5,204.0,255.0)" />

	<text x="832.8" y="943.0" font-size="9px" font-family="Arial" text-anchor="left" id="svg-480903748-1924949331" tabindex="-1" aria-label="Provence red blend">Provence red blend</text>

	<rect width="9.0" height="9.0" x="917.8" y="934.0" id="svg-480903748-1721246982" tabindex="-1" fill="rgba(247.0,227.99999999999997,143.0,255.0)" />

	<text x="930.8" y="943.0" font-size="9px" font-family="Arial" text-anchor="left" id="svg-480903748-1892627171" tabindex="-1" aria-label="Red Blend">Red Blend</text>

	<rect width="9.0" height="9.0" x="977.8" y="934.0" id="svg-480903748-1515833950" tabindex="-1" fill="rgba(248.5,127.5,138.5,255.0)" />

	<text x="990.8" y="943.0" font-size="9px" font-family="Arial" text-anchor="left" id="svg-480903748-1272883899" tabindex="-1" aria-label="Rhône-style White Blend">Rhône-style White Blend</text>

	<rect width="9.0" height="9.0" x="1107.8" y="934.0" id="svg-480903748-1816725203" tabindex="-1" fill="rgba(249.50000000000003,148.0,188.5,255.0)" />

	<text x="1120.8" y="943.0" font-size="9px" font-family="Arial" text-anchor="left" id="svg-480903748-1704491411" tabindex="-1" aria-label="Riesling">Riesling</text>

	<rect width="9.0" height="9.0" x="1157.8" y="934.0" id="svg-480903748-1896305732" tabindex="-1" fill="rgba(254.0,205.0,139.0,255.0)" />

	<text x="1170.8" y="943.0" font-size="9px" font-family="Arial" text-anchor="left" id="svg-480903748-1328718765" tabindex="-1" aria-label="Rosé">Rosé</text>

	<rect width="9.0" height="9.0" x="1205.8" y="934.0" id="svg-480903748-1802066694" tabindex="-1" fill="rgba(149.49999999999997,216.0,247.0,255.0)" />

	<text x="1218.8" y="943.0" font-size="9px" font-family="Arial" text-anchor="left" id="svg-480903748-1293677337" tabindex="-1" aria-label="Sangiovese">Sangiovese</text>

	<rect width="9.0" height="9.0" x="1271.8" y="934.0" id="svg-480903748-116734858" tabindex="-1" fill="rgba(139.0,217.0,212.49999999999997,255.0)" />

	<text x="1284.8" y="943.0" font-size="9px" font-family="Arial" text-anchor="left" id="svg-480903748-1551945522" tabindex="-1" aria-label="Sauvignon Blanc">Sauvignon Blanc</text>

	<rect width="9.0" height="9.0" x="1358.8" y="934.0" id="svg-480903748-2106592975" tabindex="-1" fill="rgba(146.0,219.00000000000003,134.0,255.0)" />

	<text x="1371.8" y="943.0" font-size="9px" font-family="Arial" text-anchor="left" id="svg-480903748-1862383967" tabindex="-1" aria-label="Sparkling Blend">Sparkling Blend</text>

	<rect width="9.0" height="9.0" x="1439.8" y="934.0" id="svg-480903748-1074263646" tabindex="-1" fill="rgba(254.5,218.0,193.0,255.0)" />

	<text x="1452.8" y="943.0" font-size="9px" font-family="Arial" text-anchor="left" id="svg-480903748-438589491" tabindex="-1" aria-label="Syrah">Syrah</text>

	<rect width="9.0" height="9.0" x="1481.8" y="934.0" id="svg-480903748-1732238286" tabindex="-1" fill="rgba(228.75,206.75,229.5,255.0)" />

	<text x="1494.8" y="943.0" font-size="9px" font-family="Arial" text-anchor="left" id="svg-480903748-93740343" tabindex="-1" aria-label="Tannat">Tannat</text>

	<rect width="9.0" height="9.0" x="1526.8" y="934.0" id="svg-480903748-2052910813" tabindex="-1" fill="rgba(251.0,241.5,199.0,255.0)" />

	<text x="1539.8" y="943.0" font-size="9px" font-family="Arial" text-anchor="left" id="svg-480903748-1107412069" tabindex="-1" aria-label="Tempranillo">Tempranillo</text>

	<rect width="9.0" height="9.0" x="1590.8" y="934.0" id="svg-480903748-1534694976" tabindex="-1" fill="rgba(251.75,191.25,196.75,255.0)" />

	<text x="1603.8" y="943.0" font-size="9px" font-family="Arial" text-anchor="left" id="svg-480903748-1823541245" tabindex="-1" aria-label="Tempranillo Blend">Tempranillo Blend</text>

	<rect width="9.0" height="9.0" x="1680.8" y="934.0" id="svg-480903748-1896232624" tabindex="-1" fill="rgba(252.25,201.5,221.75,255.0)" />

	<text x="1693.8" y="943.0" font-size="9px" font-family="Arial" text-anchor="left" id="svg-480903748-1038677529" tabindex="-1" aria-label="Tinta de Toro">Tinta de Toro</text>

	<div id= "svg-480903748-nav" class= "svgNavigation" role= "application" ><ul role= "tree" ><li id= "svg-480903748-2095064787-nav" tabindex= "-1" role= "treeitem" aria-labelledby= "svg-480903748-2095064787" ></li><li id= "svg-480903748-406765571-nav" tabindex= "-1" role= "treeitem" aria-labelledby= "svg-480903748-406765571" aria-expanded= "false" ><ul role= "group" ></ul></li><li id= "svg-480903748-2095486832-nav" tabindex= "-1" role= "treeitem" aria-labelledby= "svg-480903748-2095486832" aria-expanded= "false" ><ul role= "group" ><li id= "svg-480903748-1904783235-nav" tabindex= "-1" role= "treeitem" aria-labelledby= "svg-480903748-1904783235" ></li><li id= "svg-480903748-1810458830-nav" tabindex= "-1" role= "treeitem" aria-labelledby= "svg-480903748-1810458830" ></li><li id= "svg-480903748-2083999882-nav" tabindex= "-1" role= "treeitem" aria-labelledby= "svg-480903748-2083999882" ></li><li id= "svg-480903748-611520720-nav" tabindex= "-1" role= "treeitem" aria-labelledby= "svg-480903748-611520720" ></li><li id= "svg-480903748-271800170-nav" tabindex= "-1" role= "treeitem" aria-labelledby= "svg-480903748-271800170" ></li><li id= "svg-480903748-809300666-nav" tabindex= "-1" role= "treeitem" aria-labelledby= "svg-480903748-809300666" ></li><li id= "svg-480903748-1984513847-nav" tabindex= "-1" role= "treeitem" aria-labelledby= "svg-480903748-1984513847" ></li><li id= "svg-480903748-1241529534-nav" tabindex= "-1" role= "treeitem" aria-labelledby= "svg-480903748-1241529534" ></li><li id= "svg-480903748-1082309267-nav" tabindex= "-1" role= "treeitem" aria-labelledby= "svg-480903748-1082309267" ></li><li id= "svg-480903748-402405659-nav" tabindex= "-1" role= "treeitem" aria-labelledby= "svg-480903748-402405659" ></li><li id= "svg-480903748-724608044-nav" tabindex= "-1" role= "treeitem" aria-labelledby= "svg-480903748-724608044" ></li><li id= "svg-480903748-1621002296-nav" tabindex= "-1" role= "treeitem" aria-labelledby= "svg-480903748-1621002296" ></li><li id= "svg-480903748-899543194-nav" tabindex= "-1" role= "treeitem" aria-labelledby= "svg-480903748-899543194" ></li><li id= "svg-480903748-1138697171-nav" tabindex= "-1" role= "treeitem" aria-labelledby= "svg-480903748-1138697171" ></li><li id= "svg-480903748-1835073088-nav" tabindex= "-1" role= "treeitem" aria-labelledby= "svg-480903748-1835073088" ></li><li id= "svg-480903748-2032891036-nav" tabindex= "-1" role= "treeitem" aria-labelledby= "svg-480903748-2032891036" ></li><li id= "svg-480903748-602423811-nav" tabindex= "-1" role= "treeitem" aria-labelledby= "svg-480903748-602423811" ></li><li id= "svg-480903748-429075478-nav" tabindex= "-1" role= "treeitem" aria-labelledby= "svg-480903748-429075478" ></li><li id= "svg-480903748-1944798106-nav" tabindex= "-1" role= "treeitem" aria-labelledby= "svg-480903748-1944798106" ></li><li id= "svg-480903748-1363560175-nav" tabindex= "-1" role= "treeitem" aria-labelledby= "svg-480903748-1363560175" ></li><li id= "svg-480903748-811597470-nav" tabindex= "-1" role= "treeitem" aria-labelledby= "svg-480903748-811597470" ></li><li id= "svg-480903748-808228639-nav" tabindex= "-1" role= "treeitem" aria-labelledby= "svg-480903748-808228639" ></li><li id= "svg-480903748-426960147-nav" tabindex= "-1" role= "treeitem" aria-labelledby= "svg-480903748-426960147" ></li></ul></li><li id= "svg-480903748-837457281-nav" tabindex= "-1" role= "treeitem" aria-labelledby= "svg-480903748-837457281" aria-expanded= "false" ><ul role= "group" ></ul></li><li id= "svg-480903748-2061543916-nav" tabindex= "-1" role= "treeitem" aria-labelledby= "svg-480903748-2061543916" aria-expanded= "false" ><ul role= "group" ><li id= "svg-480903748-1863374262-nav" tabindex= "-1" role= "treeitem" aria-labelledby= "svg-480903748-1863374262" ></li><li id= "svg-480903748-88646218-nav" tabindex= "-1" role= "treeitem" aria-labelledby= "svg-480903748-88646218" ></li><li id= "svg-480903748-711540569-nav" tabindex= "-1" role= "treeitem" aria-labelledby= "svg-480903748-711540569" ></li><li id= "svg-480903748-2144665602-nav" tabindex= "-1" role= "treeitem" aria-labelledby= "svg-480903748-2144665602" ></li><li id= "svg-480903748-810267739-nav" tabindex= "-1" role= "treeitem" aria-labelledby= "svg-480903748-810267739" ></li><li id= "svg-480903748-633240419-nav" tabindex= "-1" role= "treeitem" aria-labelledby= "svg-480903748-633240419" ></li><li id= "svg-480903748-1171802656-nav" tabindex= "-1" role= "treeitem" aria-labelledby= "svg-480903748-1171802656" ></li><li id= "svg-480903748-79782883-nav" tabindex= "-1" role= "treeitem" aria-labelledby= "svg-480903748-79782883" ></li><li id= "svg-480903748-1292738535-nav" tabindex= "-1" role= "treeitem" aria-labelledby= "svg-480903748-1292738535" ></li><li id= "svg-480903748-51554940-nav" tabindex= "-1" role= "treeitem" aria-labelledby= "svg-480903748-51554940" ></li><li id= "svg-480903748-1924949331-nav" tabindex= "-1" role= "treeitem" aria-labelledby= "svg-480903748-1924949331" ></li><li id= "svg-480903748-1892627171-nav" tabindex= "-1" role= "treeitem" aria-labelledby= "svg-480903748-1892627171" ></li><li id= "svg-480903748-1272883899-nav" tabindex= "-1" role= "treeitem" aria-labelledby= "svg-480903748-1272883899" ></li><li id= "svg-480903748-1704491411-nav" tabindex= "-1" role= "treeitem" aria-labelledby= "svg-480903748-1704491411" ></li><li id= "svg-480903748-1328718765-nav" tabindex= "-1" role= "treeitem" aria-labelledby= "svg-480903748-1328718765" ></li><li id= "svg-480903748-1293677337-nav" tabindex= "-1" role= "treeitem" aria-labelledby= "svg-480903748-1293677337" ></li><li id= "svg-480903748-1551945522-nav" tabindex= "-1" role= "treeitem" aria-labelledby= "svg-480903748-1551945522" ></li><li id= "svg-480903748-1862383967-nav" tabindex= "-1" role= "treeitem" aria-labelledby= "svg-480903748-1862383967" ></li><li id= "svg-480903748-438589491-nav" tabindex= "-1" role= "treeitem" aria-labelledby= "svg-480903748-438589491" ></li><li id= "svg-480903748-93740343-nav" tabindex= "-1" role= "treeitem" aria-labelledby= "svg-480903748-93740343" ></li><li id= "svg-480903748-1107412069-nav" tabindex= "-1" role= "treeitem" aria-labelledby= "svg-480903748-1107412069" ></li><li id= "svg-480903748-1823541245-nav" tabindex= "-1" role= "treeitem" aria-labelledby= "svg-480903748-1823541245" ></li><li id= "svg-480903748-1038677529-nav" tabindex= "-1" role= "treeitem" aria-labelledby= "svg-480903748-1038677529" ></li></ul></li></ul></div>
</svg>
