<svg width="1936" height="1000"
	xmlns="http://www.w3.org/2000/svg" id="svg-482052083" tabindex="-1" role="img">

	<rect width="100.0%" height="100.0%" x="0.0%" y="0.0%" id="svg-482052083-1720339" tabindex="-1" fill="white" aria-label="Minimum and Maximum Life Expectancy for Various Cat Breeds,  with 2 violin plots. Use the arrow keys to navigate the chart." />

	<rect width="1684.0" height="690.0" x="156.0" y="204.0" id="svg-482052083-460201727" tabindex="-1" fill="white" aria-label="Chart Area " />

	<rect width="0.0" height="0.0" x="156.0" y="942.0" id="svg-482052083-585324508" tabindex="-1" />

	<rect width="0.0" height="0.0" x="156.0" y="942.0" id="svg-482052083-1234250905" tabindex="-1" />

	<rect width="0.0" height="0.0" x="156.0" y="942.0" id="svg-482052083-16868310" tabindex="-1" />

	<rect width="0.0" height="0.0" x="156.0" y="942.0" id="svg-482052083-769530879" tabindex="-1" />

	<rect width="0.0" height="0.0" x="156.0" y="942.0" id="svg-482052083-364639279" tabindex="-1" />

	<rect width="0.0" height="0.0" x="156.0" y="942.0" id="svg-482052083-1427040229" tabindex="-1" />

	<rect width="0.0" height="0.0" x="156.0" y="836.0" id="svg-482052083-1604002113" tabindex="-1" />

	<rect width="0.0" height="0.0" x="156.0" y="836.0" id="svg-482052083-38262958" tabindex="-1" />

	<text x="458.0" y="867.0" font-size="27px" font-family="Arial" text-anchor="left" transform="rotate(0.0, 458.0, 867)" id="svg-482052083-1217875525" tabindex="-1" aria-label=", 1 of 2 labels.">Maximum Life Span</text>

	<text x="1303.0" y="867.0" font-size="27px" font-family="Arial" text-anchor="left" transform="rotate(0.0, 1303.0, 867)" id="svg-482052083-1787079037" tabindex="-1" aria-label=", 2 of 2 labels.">Minimum Life Span</text>

	<rect width="0.0" height="0.0" x="0.0" y="836.0" id="svg-482052083-574268151" tabindex="-1" />

	<rect width="0.0" height="0.0" x="0.0" y="836.0" id="svg-482052083-1832532108" tabindex="-1" />

	<rect width="0.0" height="0.0" x="0.0" y="836.0" id="svg-482052083-423583818" tabindex="-1" />

	<rect width="0.0" height="0.0" x="0.0" y="836.0" id="svg-482052083-552936351" tabindex="-1" />

	<rect width="0.0" height="0.0" x="0.0" y="836.0" id="svg-482052083-1471086700" tabindex="-1" />

	<rect width="0.0" height="0.0" x="0.0" y="836.0" id="svg-482052083-1810742349" tabindex="-1" />

	<rect width="0.0" height="0.0" x="0.0" y="836.0" id="svg-482052083-154319946" tabindex="-1" />

	<rect width="0.0" height="0.0" x="0.0" y="836.0" id="svg-482052083-13803304" tabindex="-1" />

	<rect width="0.0" height="0.0" x="0.0" y="836.0" id="svg-482052083-802243390" tabindex="-1" />

	<rect width="0.0" height="0.0" x="0.0" y="836.0" id="svg-482052083-702061917" tabindex="-1" />

	<rect width="0.0" height="0.0" x="0.0" y="836.0" id="svg-482052083-890545344" tabindex="-1" />

	<rect width="0.0" height="0.0" x="0.0" y="836.0" id="svg-482052083-556488341" tabindex="-1" />

	<rect width="0.0" height="0.0" x="0.0" y="836.0" id="svg-482052083-71706941" tabindex="-1" />

	<rect width="0.0" height="0.0" x="0.0" y="836.0" id="svg-482052083-1771667101" tabindex="-1" />

	<rect width="0.0" height="0.0" x="0.0" y="836.0" id="svg-482052083-2033968586" tabindex="-1" />

	<rect width="0.0" height="0.0" x="0.0" y="836.0" id="svg-482052083-48208774" tabindex="-1" />

	<rect width="0.0" height="0.0" x="0.0" y="836.0" id="svg-482052083-929383713" tabindex="-1" />

	<rect width="0.0" height="0.0" x="0.0" y="836.0" id="svg-482052083-363509958" tabindex="-1" />

	<rect width="0.0" height="0.0" x="0.0" y="836.0" id="svg-482052083-865667596" tabindex="-1" />

	<rect width="0.0" height="0.0" x="0.0" y="836.0" id="svg-482052083-1306834002" tabindex="-1" />

	<rect width="0.0" height="0.0" x="0.0" y="836.0" id="svg-482052083-1354083458" tabindex="-1" />

	<rect width="0.0" height="0.0" x="0.0" y="836.0" id="svg-482052083-270095066" tabindex="-1" />

	<rect width="0.0" height="0.0" x="0.0" y="836.0" id="svg-482052083-1806431167" tabindex="-1" />

	<rect width="0.0" height="0.0" x="0.0" y="836.0" id="svg-482052083-50699452" tabindex="-1" />

	<rect width="0.0" height="0.0" x="0.0" y="836.0" id="svg-482052083-2125062626" tabindex="-1" />

	<rect width="0.0" height="0.0" x="0.0" y="836.0" id="svg-482052083-620557167" tabindex="-1" />

	<rect width="0.0" height="0.0" x="0.0" y="836.0" id="svg-482052083-285133380" tabindex="-1" />

	<rect width="0.0" height="0.0" x="0.0" y="836.0" id="svg-482052083-1068586139" tabindex="-1" />

	<rect width="0.0" height="0.0" x="0.0" y="836.0" id="svg-482052083-245765246" tabindex="-1" />

	<rect width="0.0" height="0.0" x="0.0" y="836.0" id="svg-482052083-1292040526" tabindex="-1" />

	<rect width="0.0" height="0.0" x="0.0" y="836.0" id="svg-482052083-726181440" tabindex="-1" />

	<rect width="0.0" height="0.0" x="0.0" y="836.0" id="svg-482052083-510147134" tabindex="-1" />

	<rect width="0.0" height="0.0" x="0.0" y="836.0" id="svg-482052083-542365801" tabindex="-1" />

	<rect width="0.0" height="0.0" x="0.0" y="836.0" id="svg-482052083-2051120548" tabindex="-1" />

	<rect width="0.0" height="0.0" x="0.0" y="836.0" id="svg-482052083-341138954" tabindex="-1" />

	<rect width="0.0" height="0.0" x="0.0" y="836.0" id="svg-482052083-1270038388" tabindex="-1" />

	<rect width="0.0" height="0.0" x="156.0" y="836.0" id="svg-482052083-1973233403" tabindex="-1" />

	<rect width="1678.0" height="4.0" x="162.0" y="768.0" id="svg-482052083-63387985" tabindex="-1" fill="rgba(191.25,191.25,191.25,255.0)" />

	<rect width="1678.0" height="4.0" x="162.0" y="706.0" id="svg-482052083-1029472813" tabindex="-1" fill="rgba(191.25,191.25,191.25,255.0)" />

	<rect width="1678.0" height="4.0" x="162.0" y="644.0" id="svg-482052083-1866875501" tabindex="-1" fill="rgba(191.25,191.25,191.25,255.0)" />

	<rect width="1678.0" height="4.0" x="162.0" y="582.0" id="svg-482052083-1936722816" tabindex="-1" fill="rgba(191.25,191.25,191.25,255.0)" />

	<rect width="1678.0" height="4.0" x="162.0" y="520.0" id="svg-482052083-1237825806" tabindex="-1" fill="rgba(191.25,191.25,191.25,255.0)" />

	<rect width="1678.0" height="4.0" x="162.0" y="457.0" id="svg-482052083-282265585" tabindex="-1" fill="rgba(191.25,191.25,191.25,255.0)" />

	<rect width="1678.0" height="4.0" x="162.0" y="395.0" id="svg-482052083-1297836716" tabindex="-1" fill="rgba(191.25,191.25,191.25,255.0)" />

	<rect width="1678.0" height="4.0" x="162.0" y="333.0" id="svg-482052083-1048855692" tabindex="-1" fill="rgba(191.25,191.25,191.25,255.0)" />

	<rect width="1678.0" height="4.0" x="162.0" y="271.0" id="svg-482052083-1249875355" tabindex="-1" fill="rgba(191.25,191.25,191.25,255.0)" />

	<rect width="1678.0" height="4.0" x="162.0" y="209.0" id="svg-482052083-1117519786" tabindex="-1" fill="rgba(191.25,191.25,191.25,255.0)" />

	<rect width="1678.0" height="4.0" x="162.0" y="153.0" id="svg-482052083-1409545055" tabindex="-1" fill="rgba(191.25,191.25,191.25,255.0)" />

	<text x="131.0" y="848.0" font-size="27px" font-family="Arial" text-anchor="left" id="svg-482052083-1212116343" tabindex="-1" aria-label=" label. ">0</text>

	<text x="131.0" y="787.0" font-size="27px" font-family="Arial" text-anchor="left" id="svg-482052083-2119891622" tabindex="-1" aria-label=" label. ">2</text>

	<text x="131.0" y="725.0" font-size="27px" font-family="Arial" text-anchor="left" id="svg-482052083-1671507048" tabindex="-1" aria-label=" label. ">4</text>

	<text x="131.0" y="662.0" font-size="27px" font-family="Arial" text-anchor="left" id="svg-482052083-687059528" tabindex="-1" aria-label=" label. ">6</text>

	<text x="131.0" y="600.0" font-size="27px" font-family="Arial" text-anchor="left" id="svg-482052083-454305524" tabindex="-1" aria-label=" label. ">8</text>

	<text x="116.0" y="538.0" font-size="27px" font-family="Arial" text-anchor="left" id="svg-482052083-850551034" tabindex="-1" aria-label=" label. ">10</text>

	<text x="116.0" y="476.0" font-size="27px" font-family="Arial" text-anchor="left" id="svg-482052083-1478150312" tabindex="-1" aria-label=" label. ">12</text>

	<text x="116.0" y="414.0" font-size="27px" font-family="Arial" text-anchor="left" id="svg-482052083-1833848849" tabindex="-1" aria-label=" label. ">14</text>

	<text x="116.0" y="352.0" font-size="27px" font-family="Arial" text-anchor="left" id="svg-482052083-1473771722" tabindex="-1" aria-label=" label. ">16</text>

	<text x="116.0" y="289.0" font-size="27px" font-family="Arial" text-anchor="left" id="svg-482052083-1992550266" tabindex="-1" aria-label=" label. ">18</text>

	<text x="116.0" y="227.0" font-size="27px" font-family="Arial" text-anchor="left" id="svg-482052083-2014461570" tabindex="-1" aria-label=" label. ">20</text>

	<text x="116.0" y="165.0" font-size="27px" font-family="Arial" text-anchor="left" id="svg-482052083-1740846921" tabindex="-1" aria-label=" label. ">22</text>

	<rect width="1681.0" height="3.0" x="156.0" y="833.0" id="svg-482052083-263885523" tabindex="-1" fill="rgba(0.0,0.0,0.0,255.0)" />

	<rect width="1684.32" height="106.0" x="156.0" y="836.0" id="svg-482052083-1714113641" tabindex="-1" fill="rgba(0.0,0.0,0.0,0.0)" aria-label="Type of extrema axis has 2 text labels. The labels are Maximum Life Span, and Minimum Life Span. " />

	<text x="869.0" y="923.0" font-size="36px" font-family="Arial" text-anchor="left" id="svg-482052083-262445056" tabindex="-1">Type of extrema</text>

	<rect width="6.0" height="684.0" x="156.0" y="152.0" id="svg-482052083-1898155970" tabindex="-1" fill="rgba(0.0,0.0,0.0,255.0)" />

	<rect width="156.0" height="690.0" x="0.0" y="146.0" id="svg-482052083-710190911" tabindex="-1" fill="rgba(0.0,0.0,0.0,0.0)" aria-label="Age axis ranges from 0 to 22. " />

	<text x="87.0" y="523.0" font-size="36px" font-family="Arial" text-anchor="left" transform="rotate(270.0, 87.0, 523)" id="svg-482052083-379645464" tabindex="-1">Age</text>

	<text x="719.0" y="62.0" font-size="20px" font-family="Arial" text-anchor="left" id="svg-482052083-1030684756" tabindex="-1">Minimum and Maximum Life Expectancy for Various Cat Breeds</text>

	<text x="878.0" y="140.0" font-size="25px" font-family="Arial" text-anchor="left" id="svg-482052083-1348453796" tabindex="-1">How long do cats live</text>

	<rect width="842.0" height="687.0" x="156.0" y="149.0" id="svg-482052083-1910438136-943454742-1296456465" tabindex="-1" fill="rgba(0.0,0.0,0.0,0.0)" aria-label="Maximum Life Span, 1 of 2 box plots" />

	<polygon tabindex="-1" fill="rgba(46.0,46.0,46.0,255.0)" stroke="black" stroke-width="1.0" points="547,210 547,211 546,212 546,213 546,214 546,215 546,216 546,217 547,218 547,219 547,220 547,221 547,222 548,223 548,224 548,225 548,226 549,227 549,228 549,229 549,230 550,231 550,232 550,233 550,234 550,235 551,236 551,237 551,238 551,239 551,240 551,241 551,242 550,243 550,244 550,245 550,246 549,247 549,248 549,249 548,250 548,251 547,252 547,253 546,254 546,255 545,256 545,257 544,258 543,259 543,260 542,261 541,262 541,263 540,264 539,265 538,266 538,267 537,268 536,269 535,270 535,271 534,272 533,273 532,274 531,275 531,276 530,277 529,278 528,279 527,280 526,281 525,282 524,283 523,284 522,285 521,286 519,287 518,288 517,289 515,290 514,291 512,292 511,293 509,294 507,295 505,296 503,297 501,298 499,299 497,300 494,301 492,302 489,303 486,304 483,305 480,306 477,307 474,308 471,309 467,310 464,311 460,312 456,313 453,314 449,315 445,316 440,317 436,318 432,319 428,320 423,321 419,322 414,323 410,324 405,325 400,326 396,327 391,328 386,329 381,330 376,331 372,332 367,333 362,334 357,335 352,336 348,337 343,338 338,339 333,340 329,341 324,342 320,343 315,344 311,345 307,346 302,347 298,348 295,349 291,350 287,351 284,352 281,353 278,354 275,355 272,356 270,357 268,358 266,359 265,360 264,361 263,362 262,363 262,364 262,365 262,366 263,367 264,368 265,369 266,370 268,371 270,372 273,373 276,374 279,375 282,376 285,377 289,378 293,379 297,380 301,381 306,382 310,383 315,384 320,385 325,386 330,387 335,388 340,389 346,390 351,391 357,392 362,393 368,394 373,395 379,396 385,397 390,398 396,399 402,400 407,401 413,402 419,403 425,404 430,405 436,406 441,407 447,408 452,409 457,410 463,411 468,412 473,413 477,414 482,415 487,416 491,417 496,418 500,419 504,420 508,421 511,422 515,423 518,424 521,425 524,426 527,427 529,428 532,429 534,430 536,431 538,432 539,433 541,434 542,435 543,436 544,437 545,438 546,439 546,440 547,441 547,442 548,443 548,444 548,445 548,446 548,447 548,448 548,449 548,450 548,451 548,452 548,453 548,454 549,455 549,456 549,457 549,458 549,459 605,459 605,458 605,457 605,456 605,455 606,454 606,453 606,452 606,451 606,450 606,449 606,448 606,447 606,446 606,445 606,444 606,443 607,442 607,441 608,440 608,439 609,438 610,437 611,436 612,435 613,434 615,433 616,432 618,431 620,430 622,429 625,428 627,427 630,426 633,425 636,424 639,423 643,422 646,421 650,420 654,419 658,418 663,417 667,416 672,415 677,414 681,413 686,412 691,411 697,410 702,409 707,408 713,407 718,406 724,405 729,404 735,403 741,402 747,401 752,400 758,399 764,398 769,397 775,396 781,395 786,394 792,393 797,392 803,391 808,390 814,389 819,388 824,387 829,386 834,385 839,384 844,383 848,382 853,381 857,380 861,379 865,378 869,377 872,376 875,375 878,374 881,373 884,372 886,371 888,370 889,369 890,368 891,367 892,366 892,365 892,364 892,363 891,362 890,361 889,360 888,359 886,358 884,357 882,356 879,355 876,354 873,353 870,352 867,351 863,350 859,349 856,348 852,347 847,346 843,345 839,344 834,343 830,342 825,341 821,340 816,339 811,338 806,337 802,336 797,335 792,334 787,333 782,332 778,331 773,330 768,329 763,328 758,327 754,326 749,325 744,324 740,323 735,322 731,321 726,320 722,319 718,318 714,317 709,316 705,315 701,314 698,313 694,312 690,311 687,310 683,309 680,308 677,307 674,306 671,305 668,304 665,303 662,302 660,301 657,300 655,299 653,298 651,297 649,296 647,295 645,294 643,293 642,292 640,291 639,290 637,289 636,288 635,287 633,286 632,285 631,284 630,283 629,282 628,281 627,280 626,279 625,278 624,277 623,276 623,275 622,274 621,273 620,272 619,271 619,270 618,269 617,268 616,267 616,266 615,265 614,264 613,263 613,262 612,261 611,260 611,259 610,258 609,257 609,256 608,255 608,254 607,253 607,252 606,251 606,250 605,249 605,248 605,247 604,246 604,245 604,244 604,243 603,242 603,241 603,240 603,239 603,238 603,237 603,236 604,235 604,234 604,233 604,232 604,231 605,230 605,229 605,228 605,227 606,226 606,225 606,224 606,223 607,222 607,221 607,220 607,219 607,218 608,217 608,216 608,215 608,214 608,213 608,212 607,211 607,210 " />

	<rect width="8.0" height="8.0" x="573.0" y="391.0" id="svg-482052083-1910438136-943454742-1899223686" tabindex="-1" fill="black" aria-label="Minimum 14" />

	<rect width="8.0" height="31.0" x="573.0" y="368.0" id="svg-482052083-1910438136-943454742-842179210" tabindex="-1" fill="black" aria-label="Unnamed" />

	<rect width="24.0" height="39.0" x="565.0" y="329.0" id="svg-482052083-1910438136-943454742-1944201789" tabindex="-1" fill="black" aria-label="Interquartile range 1" />

	<rect width="24.0" height="8.0" x="565.0" y="360.0" id="svg-482052083-1910438136-943454742-1207608476" tabindex="-1" fill="black" aria-label="1st Quartile 15" />

	<rect width="24.0" height="8.0" x="565.0" y="329.0" id="svg-482052083-1910438136-943454742-259219561" tabindex="-1" fill="black" aria-label="3rd Quartile 16" />

	<rect width="8.0" height="23.0" x="573.0" y="314.0" id="svg-482052083-1910438136-943454742-1839337592" tabindex="-1" fill="black" aria-label="Unnamed" />

	<rect width="8.0" height="8.0" x="573.0" y="306.0" id="svg-482052083-1910438136-943454742-2146338580" tabindex="-1" fill="black" aria-label="Maximum 17" />

	<circle cx="577.5" cy="359.5" r="8.5" id="svg-482052083-1910438136-943454742-686989583" tabindex="-1" fill="white" stroke="black" stroke-width="1.0" aria-label="Median 15" />

	<rect width="842.0" height="687.0" x="998.0" y="149.0" id="svg-482052083-1110031167-1456339771-730923082" tabindex="-1" fill="rgba(0.0,0.0,0.0,0.0)" aria-label="Minimum Life Span, 2 of 2 box plots" />

	<polygon tabindex="-1" fill="rgba(239.0,201.0,31.0,255.0)" stroke="black" stroke-width="1.0" points="1407,272 1407,273 1406,274 1406,275 1406,276 1406,277 1406,278 1406,279 1406,280 1405,281 1405,282 1405,283 1405,284 1405,285 1405,286 1405,287 1405,288 1405,289 1405,290 1405,291 1405,292 1405,293 1405,294 1406,295 1406,296 1406,297 1406,298 1406,299 1406,300 1406,301 1406,302 1407,303 1407,304 1407,305 1407,306 1407,307 1407,308 1408,309 1408,310 1408,311 1408,312 1408,313 1408,314 1408,315 1409,316 1409,317 1409,318 1409,319 1409,320 1409,321 1409,322 1408,323 1408,324 1408,325 1408,326 1407,327 1407,328 1407,329 1406,330 1406,331 1405,332 1404,333 1404,334 1403,335 1402,336 1401,337 1400,338 1399,339 1398,340 1397,341 1395,342 1394,343 1393,344 1391,345 1390,346 1388,347 1387,348 1385,349 1383,350 1382,351 1380,352 1378,353 1376,354 1374,355 1372,356 1371,357 1369,358 1367,359 1365,360 1363,361 1361,362 1359,363 1357,364 1355,365 1353,366 1351,367 1349,368 1347,369 1345,370 1343,371 1341,372 1339,373 1337,374 1335,375 1333,376 1331,377 1330,378 1328,379 1326,380 1325,381 1323,382 1322,383 1321,384 1319,385 1318,386 1317,387 1316,388 1316,389 1315,390 1314,391 1314,392 1313,393 1313,394 1313,395 1313,396 1313,397 1313,398 1313,399 1313,400 1313,401 1314,402 1314,403 1314,404 1315,405 1315,406 1315,407 1316,408 1316,409 1316,410 1316,411 1316,412 1315,413 1315,414 1314,415 1313,416 1312,417 1310,418 1309,419 1307,420 1304,421 1301,422 1298,423 1295,424 1291,425 1287,426 1283,427 1278,428 1273,429 1268,430 1262,431 1256,432 1249,433 1243,434 1236,435 1229,436 1222,437 1215,438 1207,439 1200,440 1192,441 1185,442 1177,443 1170,444 1163,445 1156,446 1150,447 1143,448 1137,449 1132,450 1127,451 1122,452 1118,453 1114,454 1111,455 1108,456 1106,457 1105,458 1104,459 1104,460 1104,461 1105,462 1107,463 1109,464 1111,465 1114,466 1118,467 1122,468 1127,469 1132,470 1137,471 1143,472 1149,473 1155,474 1161,475 1167,476 1174,477 1180,478 1187,479 1193,480 1200,481 1206,482 1213,483 1219,484 1224,485 1230,486 1235,487 1240,488 1245,489 1250,490 1254,491 1258,492 1261,493 1264,494 1267,495 1270,496 1272,497 1274,498 1276,499 1277,500 1278,501 1279,502 1280,503 1281,504 1281,505 1281,506 1281,507 1281,508 1281,509 1281,510 1281,511 1281,512 1281,513 1281,514 1281,515 1281,516 1281,517 1282,518 1282,519 1283,520 1283,521 1284,522 1285,523 1287,524 1288,525 1289,526 1291,527 1293,528 1295,529 1297,530 1299,531 1302,532 1304,533 1307,534 1309,535 1312,536 1315,537 1318,538 1321,539 1324,540 1327,541 1330,542 1333,543 1336,544 1339,545 1342,546 1345,547 1348,548 1351,549 1353,550 1356,551 1359,552 1361,553 1364,554 1366,555 1368,556 1371,557 1373,558 1375,559 1377,560 1378,561 1380,562 1382,563 1383,564 1385,565 1386,566 1388,567 1389,568 1390,569 1391,570 1392,571 1393,572 1394,573 1395,574 1396,575 1397,576 1398,577 1399,578 1399,579 1400,580 1401,581 1401,582 1402,583 1403,584 1435,584 1436,583 1437,582 1437,581 1438,580 1439,579 1439,578 1440,577 1441,576 1442,575 1443,574 1444,573 1445,572 1446,571 1447,570 1448,569 1449,568 1450,567 1452,566 1453,565 1455,564 1456,563 1458,562 1460,561 1461,560 1463,559 1465,558 1467,557 1470,556 1472,555 1474,554 1477,553 1479,552 1482,551 1485,550 1487,549 1490,548 1493,547 1496,546 1499,545 1502,544 1505,543 1508,542 1511,541 1514,540 1517,539 1520,538 1523,537 1526,536 1529,535 1531,534 1534,533 1536,532 1539,531 1541,530 1543,529 1545,528 1547,527 1549,526 1550,525 1551,524 1553,523 1554,522 1555,521 1555,520 1556,519 1556,518 1557,517 1557,516 1557,515 1557,514 1557,513 1557,512 1557,511 1557,510 1557,509 1557,508 1557,507 1557,506 1557,505 1557,504 1558,503 1559,502 1560,501 1561,500 1562,499 1564,498 1566,497 1568,496 1571,495 1574,494 1577,493 1580,492 1584,491 1588,490 1593,489 1598,488 1603,487 1608,486 1614,485 1619,484 1625,483 1632,482 1638,481 1645,480 1651,479 1658,478 1664,477 1671,476 1677,475 1683,474 1689,473 1695,472 1701,471 1706,470 1711,469 1716,468 1720,467 1724,466 1727,465 1729,464 1731,463 1733,462 1734,461 1734,460 1734,459 1733,458 1732,457 1730,456 1727,455 1724,454 1720,453 1716,452 1711,451 1706,450 1701,449 1695,448 1688,447 1682,446 1675,445 1668,444 1661,443 1653,442 1646,441 1638,440 1631,439 1623,438 1616,437 1609,436 1602,435 1595,434 1589,433 1582,432 1576,431 1570,430 1565,429 1560,428 1555,427 1551,426 1547,425 1543,424 1540,423 1537,422 1534,421 1531,420 1529,419 1528,418 1526,417 1525,416 1524,415 1523,414 1523,413 1522,412 1522,411 1522,410 1522,409 1522,408 1523,407 1523,406 1523,405 1524,404 1524,403 1524,402 1525,401 1525,400 1525,399 1525,398 1525,397 1525,396 1525,395 1525,394 1525,393 1524,392 1524,391 1523,390 1522,389 1522,388 1521,387 1520,386 1519,385 1517,384 1516,383 1515,382 1513,381 1512,380 1510,379 1508,378 1507,377 1505,376 1503,375 1501,374 1499,373 1497,372 1495,371 1493,370 1491,369 1489,368 1487,367 1485,366 1483,365 1481,364 1479,363 1477,362 1475,361 1473,360 1471,359 1469,358 1467,357 1466,356 1464,355 1462,354 1460,353 1458,352 1456,351 1455,350 1453,349 1451,348 1450,347 1448,346 1447,345 1445,344 1444,343 1443,342 1441,341 1440,340 1439,339 1438,338 1437,337 1436,336 1435,335 1434,334 1434,333 1433,332 1432,331 1432,330 1431,329 1431,328 1431,327 1430,326 1430,325 1430,324 1430,323 1429,322 1429,321 1429,320 1429,319 1429,318 1429,317 1429,316 1430,315 1430,314 1430,313 1430,312 1430,311 1430,310 1430,309 1431,308 1431,307 1431,306 1431,305 1431,304 1431,303 1432,302 1432,301 1432,300 1432,299 1432,298 1432,297 1432,296 1432,295 1433,294 1433,293 1433,292 1433,291 1433,290 1433,289 1433,288 1433,287 1433,286 1433,285 1433,284 1433,283 1433,282 1433,281 1432,280 1432,279 1432,278 1432,277 1432,276 1432,275 1432,274 1431,273 1431,272 " />

	<rect width="8.0" height="8.0" x="1415.0" y="547.0" id="svg-482052083-1110031167-1456339771-550302731" tabindex="-1" fill="black" aria-label="Minimum 9" />

	<rect width="8.0" height="62.0" x="1415.0" y="493.0" id="svg-482052083-1110031167-1456339771-800281454" tabindex="-1" fill="black" aria-label="Unnamed" />

	<rect width="24.0" height="55.0" x="1407.0" y="438.0" id="svg-482052083-1110031167-1456339771-379478400" tabindex="-1" fill="black" aria-label="Interquartile range 1.5" />

	<rect width="24.0" height="8.0" x="1407.0" y="485.0" id="svg-482052083-1110031167-1456339771-900636745" tabindex="-1" fill="black" aria-label="1st Quartile 11" />

	<rect width="24.0" height="8.0" x="1407.0" y="438.0" id="svg-482052083-1110031167-1456339771-1201173334" tabindex="-1" fill="black" aria-label="3rd Quartile 12.5" />

	<rect width="8.0" height="39.0" x="1415.0" y="407.0" id="svg-482052083-1110031167-1456339771-586127428" tabindex="-1" fill="black" aria-label="Unnamed" />

	<rect width="8.0" height="8.0" x="1415.0" y="399.0" id="svg-482052083-1110031167-1456339771-1652807864" tabindex="-1" fill="black" aria-label="Maximum 14" />

	<circle cx="1419.5" cy="453.5" r="8.5" id="svg-482052083-1110031167-1456339771-1912960603" tabindex="-1" fill="white" stroke="black" stroke-width="1.0" aria-label="Median 12" />

	<rect width="1684.32" height="58.0" x="156.0" y="942.0" id="svg-482052083-997055773" tabindex="-1" fill="rgba(0.0,0.0,0.0,0.0)" aria-label="legend with 2 series" />

	<text x="168.0" y="983.0" font-size="36px" font-family="Arial" text-anchor="left" id="svg-482052083-1063980005" tabindex="-1" aria-label="Life Span">Life Span</text>

	<rect width="25.0" height="25.0" x="330.0" y="954.0" id="svg-482052083-1628998132" tabindex="-1" fill="rgba(46.0,46.0,46.0,255.0)" />

	<text x="367.0" y="979.0" font-size="25px" font-family="Arial" text-anchor="left" id="svg-482052083-943454742" tabindex="-1" aria-label="Maximum Life Span">Maximum Life Span</text>

	<rect width="25.0" height="25.0" x="603.0" y="954.0" id="svg-482052083-497208183" tabindex="-1" fill="rgba(239.0,201.0,31.0,255.0)" />

	<text x="640.0" y="979.0" font-size="25px" font-family="Arial" text-anchor="left" id="svg-482052083-1456339771" tabindex="-1" aria-label="Minimum Life Span">Minimum Life Span</text>

	<div id= "svg-482052083-nav" class= "svgNavigation" role= "application" ><ul role= "tree" ><li id= "svg-482052083-1720339-nav" tabindex= "-1" role= "treeitem" aria-labelledby= "svg-482052083-1720339" ></li><li id= "svg-482052083-710190911-nav" tabindex= "-1" role= "treeitem" aria-labelledby= "svg-482052083-710190911" aria-expanded= "false" ><ul role= "group" ><li id= "svg-482052083-1212116343-nav" tabindex= "-1" role= "treeitem" aria-labelledby= "svg-482052083-1212116343" ></li><li id= "svg-482052083-2119891622-nav" tabindex= "-1" role= "treeitem" aria-labelledby= "svg-482052083-2119891622" ></li><li id= "svg-482052083-1671507048-nav" tabindex= "-1" role= "treeitem" aria-labelledby= "svg-482052083-1671507048" ></li><li id= "svg-482052083-687059528-nav" tabindex= "-1" role= "treeitem" aria-labelledby= "svg-482052083-687059528" ></li><li id= "svg-482052083-454305524-nav" tabindex= "-1" role= "treeitem" aria-labelledby= "svg-482052083-454305524" ></li><li id= "svg-482052083-850551034-nav" tabindex= "-1" role= "treeitem" aria-labelledby= "svg-482052083-850551034" ></li><li id= "svg-482052083-1478150312-nav" tabindex= "-1" role= "treeitem" aria-labelledby= "svg-482052083-1478150312" ></li><li id= "svg-482052083-1833848849-nav" tabindex= "-1" role= "treeitem" aria-labelledby= "svg-482052083-1833848849" ></li><li id= "svg-482052083-1473771722-nav" tabindex= "-1" role= "treeitem" aria-labelledby= "svg-482052083-1473771722" ></li><li id= "svg-482052083-1992550266-nav" tabindex= "-1" role= "treeitem" aria-labelledby= "svg-482052083-1992550266" ></li><li id= "svg-482052083-2014461570-nav" tabindex= "-1" role= "treeitem" aria-labelledby= "svg-482052083-2014461570" ></li><li id= "svg-482052083-1740846921-nav" tabindex= "-1" role= "treeitem" aria-labelledby= "svg-482052083-1740846921" ></li></ul></li><li id= "svg-482052083-460201727-nav" tabindex= "-1" role= "treeitem" aria-labelledby= "svg-482052083-460201727" aria-expanded= "false" ><ul role= "group" ><li id= "svg-482052083-1910438136-943454742-1296456465-nav" tabindex= "-1" role= "treeitem" aria-labelledby= "svg-482052083-1910438136-943454742-1296456465" aria-expanded= "false" ><ul role= "group" ><li id= "svg-482052083-1910438136-943454742-1899223686-nav" tabindex= "-1" role= "treeitem" aria-labelledby= "svg-482052083-1910438136-943454742-1899223686" ></li><li id= "svg-482052083-1910438136-943454742-1944201789-nav" tabindex= "-1" role= "treeitem" aria-labelledby= "svg-482052083-1910438136-943454742-1944201789" ></li><li id= "svg-482052083-1910438136-943454742-1207608476-nav" tabindex= "-1" role= "treeitem" aria-labelledby= "svg-482052083-1910438136-943454742-1207608476" ></li><li id= "svg-482052083-1910438136-943454742-686989583-nav" tabindex= "-1" role= "treeitem" aria-labelledby= "svg-482052083-1910438136-943454742-686989583" ></li><li id= "svg-482052083-1910438136-943454742-259219561-nav" tabindex= "-1" role= "treeitem" aria-labelledby= "svg-482052083-1910438136-943454742-259219561" ></li><li id= "svg-482052083-1910438136-943454742-2146338580-nav" tabindex= "-1" role= "treeitem" aria-labelledby= "svg-482052083-1910438136-943454742-2146338580" ></li></ul></li><li id= "svg-482052083-1110031167-1456339771-730923082-nav" tabindex= "-1" role= "treeitem" aria-labelledby= "svg-482052083-1110031167-1456339771-730923082" aria-expanded= "false" ><ul role= "group" ><li id= "svg-482052083-1110031167-1456339771-550302731-nav" tabindex= "-1" role= "treeitem" aria-labelledby= "svg-482052083-1110031167-1456339771-550302731" ></li><li id= "svg-482052083-1110031167-1456339771-379478400-nav" tabindex= "-1" role= "treeitem" aria-labelledby= "svg-482052083-1110031167-1456339771-379478400" ></li><li id= "svg-482052083-1110031167-1456339771-900636745-nav" tabindex= "-1" role= "treeitem" aria-labelledby= "svg-482052083-1110031167-1456339771-900636745" ></li><li id= "svg-482052083-1110031167-1456339771-1912960603-nav" tabindex= "-1" role= "treeitem" aria-labelledby= "svg-482052083-1110031167-1456339771-1912960603" ></li><li id= "svg-482052083-1110031167-1456339771-1201173334-nav" tabindex= "-1" role= "treeitem" aria-labelledby= "svg-482052083-1110031167-1456339771-1201173334" ></li><li id= "svg-482052083-1110031167-1456339771-1652807864-nav" tabindex= "-1" role= "treeitem" aria-labelledby= "svg-482052083-1110031167-1456339771-1652807864" ></li></ul></li></ul></li><li id= "svg-482052083-1714113641-nav" tabindex= "-1" role= "treeitem" aria-labelledby= "svg-482052083-1714113641" aria-expanded= "false" ><ul role= "group" ><li id= "svg-482052083-1217875525-nav" tabindex= "-1" role= "treeitem" aria-labelledby= "svg-482052083-1217875525" ></li><li id= "svg-482052083-1787079037-nav" tabindex= "-1" role= "treeitem" aria-labelledby= "svg-482052083-1787079037" ></li></ul></li><li id= "svg-482052083-997055773-nav" tabindex= "-1" role= "treeitem" aria-labelledby= "svg-482052083-997055773" aria-expanded= "false" ><ul role= "group" ><li id= "svg-482052083-943454742-nav" tabindex= "-1" role= "treeitem" aria-labelledby= "svg-482052083-943454742" ></li><li id= "svg-482052083-1456339771-nav" tabindex= "-1" role= "treeitem" aria-labelledby= "svg-482052083-1456339771" ></li></ul></li></ul></div>
</svg>
